<svg t="1624599628892" class="icon" viewBox="0 0 1024 1024" version="1.1" xmlns="http://www.w3.org/2000/svg" p-id="5832" width="200" height="200"><path d="M333.642 391.931l-45.515 45.516L473.988 623.26l422.669-422.67-45.467-45.515-377.203 377.25z" fill="" p-id="5833"></path><path d="M833.617 415.478v385.99c0 17.773-14.366 32.139-32.138 32.139h-578.96c-17.772 0-32.138-14.366-32.138-32.138v-578.96c0-17.772 14.366-32.138 32.138-32.138H608.51v-64.322H190.382c-35.542 0-64.322 28.78-64.322 64.322v643.236c0 35.542 28.78 64.322 64.322 64.322h643.236c35.542 0 64.322-28.78 64.32-64.323V415.478h-64.321z" fill="" p-id="5834"></path></svg>