<?xml version="1.0" encoding="utf-8"?>
<svg version="1.1" xmlns:xlink="http://www.w3.org/1999/xlink" width="10px" height="16px" xmlns="http://www.w3.org/2000/svg">
  <g transform="matrix(1 0 0 1 -310 -26 )">
    <path d="M 9.828178694158074 7.631262525050101  C 9.942726231386027 7.73814295257181  10 7.861055444221776  10 8  C 10 8.138944555778222  9.942726231386027 8.261857047428188  9.828178694158074 8.3687374749499  L 1.8213058419243986 15.839679358717435  C 1.7067583046964492 15.946559786239145  1.575028636884307 16  1.4261168384879723 16  C 1.2772050400916382 16  1.1454753722794961 15.946559786239145  1.0309278350515463 15.839679358717435  L 0.1718213058419244 15.03807615230461  C 0.05727376861397484 14.931195724782897  0 14.808283233132933  0 14.669338677354709  C 0 14.530394121576485  0.05727376861397484 14.40748162992652  0.1718213058419244 14.30060120240481  L 6.9243986254295535 8  L 0.1718213058419244 1.6993987975951903  C 0.05727376861397484 1.5925183700734795  0 1.469605878423513  0 1.330661322645291  C 0 1.1917167668670654  0.05727376861397484 1.068804275217099  0.1718213058419244 0.96192384769539  L 1.0309278350515463 0.1603206412825653  C 1.1454753722794961 0.053440213760854505  1.2772050400916382 0  1.4261168384879723 0  C 1.575028636884307 0  1.7067583046964492 0.053440213760854505  1.8213058419243986 0.1603206412825653  L 9.828178694158074 7.631262525050101  Z " fill-rule="nonzero" fill="#d7d6e1" stroke="none" transform="matrix(1 0 0 1 310 26 )" />
  </g>
</svg>