<?xml version="1.0" encoding="utf-8"?>
<svg version="1.1" xmlns:xlink="http://www.w3.org/1999/xlink" width="23px" height="23px" xmlns="http://www.w3.org/2000/svg">
  <g transform="matrix(1 0 0 1 -59 -156 )">
    <path d="M 70.5 157  C 76.38 157  81 161.62  81 167.5  C 81 173.38  76.38 178  70.5 178  C 64.62 178  60 173.38  60 167.5  C 60 161.62  64.62 157  70.5 157  Z " fill-rule="nonzero" fill="#ffffff" stroke="none" fill-opacity="0" />
    <path d="M 70.5 157  C 76.38 157  81 161.62  81 167.5  C 81 173.38  76.38 178  70.5 178  C 64.62 178  60 173.38  60 167.5  C 60 161.62  64.62 157  70.5 157  Z " stroke-width="2" stroke="#000000" fill="none" />
  </g>
</svg>