<?xml version="1.0" encoding="utf-8"?>
<svg version="1.1" xmlns:xlink="http://www.w3.org/1999/xlink" width="23px" height="23px" xmlns="http://www.w3.org/2000/svg">
  <g transform="matrix(1 0 0 1 -59 -178 )">
    <path d="M 70.5 179  C 76.38 179  81 183.62  81 189.5  C 81 195.38  76.38 200  70.5 200  C 64.62 200  60 195.38  60 189.5  C 60 183.62  64.62 179  70.5 179  Z " fill-rule="nonzero" fill="#ffffff" stroke="none" fill-opacity="0" />
    <path d="M 70.5 179  C 76.38 179  81 183.62  81 189.5  C 81 195.38  76.38 200  70.5 200  C 64.62 200  60 195.38  60 189.5  C 60 183.62  64.62 179  70.5 179  Z " stroke-width="2" stroke="#000000" fill="none" />
  </g>
</svg>