<?xml version="1.0" encoding="utf-8"?>
<svg version="1.1" xmlns:xlink="http://www.w3.org/1999/xlink" width="36px" height="36px" xmlns="http://www.w3.org/2000/svg">
  <g transform="matrix(1 0 0 1 -74 -36 )">
    <path d="M 31 33.93750001464844  C 31.50943394752359 34.96875002929688  30.66037734375 35.81250002929687  29.528301872051887 35.81249998535156  L 23.301886777712266 35.81249998535156  C 22.169811306014154 35.81249998535156  21.32075470224057 34.96874998535156  21 33.843749985351565  L 21 22.687500014648435  C 21.32075470224057 22.687500014648435  21.32075470224057 22.59375002929687  21.226415094339625 22.59374998535156  L 15.000000000000004 22.59374998535156  C 14.905660392099062 22.59374998535156  14.905660392099062 22.59374998535156  15 22.687500014648435  L 15 33.84374998535156  C 14.905660392099062 34.96874998535156  14.056603788325475 35.81249998535156  12.924528316627361 35.81249998535156  L 6.698113222287739 35.81249998535156  C 5.566037750589625 35.81249998535156  4.71698114681604 34.96874998535156  5 33.84374998535156  L 5 17.06250001464844  C 4.71698114681604 17.06250001464844  4.71698114681604 16.968750029296874  4.622641494693399 16.968749985351565  L 2.169811335495283 16.968749985351565  C 1.3207547317216988 16.968749985351565  0.5660377358490566 16.499999970703126  0.2830188679245291 15.656250014648437  C 0 14.90625  0.18867926002358562 14.0625  0.8490566037735849 13.5  L 16.792452815448115 0.6562499853515625  C 17.547169811320757 0  18.584905630896223 0  19.339622626768865 0.6562499853515625  L 35.283018882665104 13.593749985351563  C 35.94339622641509 14.156249985351563  36.13207548643869 14.999999985351563  35.849056618514155 15.749999999999996  C 35.56603775058962 16.500000014648435  34.81132075471698 17.062500014648435  33.9622641509434 17.062500014648435  L 31.603773599646225 17.062500014648435  C 31.509433991745283 17.062500014648435  31.509433991745283 17.062500014648435  31 17.156249999999996  L 31 33.93750001464844  Z M 13 22.687500014648435  C 13.018867924528301 21.562500014648435  13.867924528301888 20.71875001464844  15 20.71875001464844  L 21.226415094339625 20.71875001464844  C 22.35849056603774 20.71875001464844  23.207547169811324 21.56250001464844  23 22.687500014648435  L 23 33.84374998535156  C 23.207547169811324 33.84374998535156  23.207547169811324 33.93749997070312  23.301886777712266 33.93750001464844  L 29.528301872051887 33.93750001464844  C 29.622641479952826 33.93750001464844  29.622641479952826 33.93750001464844  29 33.84374998535156  L 29 17.06250001464844  C 29.62264152417453 15.937500014648437  30.471698127948113 15.093750014648437  31.60377359964622 15.093750014648437  L 33.9622641509434 15.093750014648437  C 33.9622641509434 15.093750014648437  34.05660375884434 15.093750014648437  34.05660375884434 14.999999985351563  L 18.207547155070753 2.062499985351563  L 18.01886793926887 2.062499985351563  L 2.075471683372642 14.999999985351563  C 2.075471683372642 15.093749970703126  2.169811291273585 15.093749970703126  2.169811335495283 15.093750014648437  L 4.528301886792453 15.093750014648437  C 5.660377358490566 15.093750014648437  6.509433962264152 15.937500014648437  7 17.06250001464844  L 7 33.843749985351565  C 6.509433962264152 33.843749985351565  6.509433962264152 33.93749997070313  6.603773570165095 33.93750001464844  L 12.83018866450472 33.93750001464844  C 12.924528272405661 33.93750001464844  12.924528272405661 33.93750001464844  13 33.843749985351565  L 13 22.687500014648435  Z " fill-rule="nonzero" fill="#333333" stroke="none" transform="matrix(1 0 0 1 74 36 )" />
  </g>
</svg>