<?xml version="1.0" encoding="utf-8"?>
<svg version="1.1" xmlns:xlink="http://www.w3.org/1999/xlink" width="36px" height="36px" xmlns="http://www.w3.org/2000/svg">
  <g transform="matrix(1 0 0 1 -640 -36 )">
    <path d="M 13.607468390039063 9.065080630078127  L 11.372435710546876 9.065080630078127  L 11.372435710546876 11.282888008007813  L 9.137522375390626 11.282888008007813  L 9.137522375390626 13.50073516640625  L 11.372435710546876 13.50073516640625  L 11.372435710546876 15.718542544335937  L 13.607428609570311 15.718542544335937  L 13.607428609570311 13.50073516640625  L 15.842341944140628 13.50073516640625  L 15.842341944140628 11.28292778964844  L 13.607428609570311 11.28292778964844  L 13.607428609570311 9.065080630664063  Z M 35.67765528691407 18.86110598261719  C 35.67765528691407 17.02476147363281  34.177900342382806 15.534355134960936  32.32520572089843 15.534355134375001  C 30.472351973437505 15.534355134375001  28.97275615488281 17.02476147363281  28.97275615371094 18.86110598261719  C 28.97275615371094 20.69741070996094  30.472351972851563 22.187777266992185  32.32520572089843 22.187777267578127  C 34.17797990625 22.187777267578127  35.67765528691407 20.697450490429688  35.67765528691407 18.86110598261719  Z M 21.145865284570313 19.040758325390627  L 31.44460690253906 8.191204852148438  C 32.21787577851563 7.401665425195313  31.462428924609373 6.14640634042969  31.33063348242188 6.095366934375001  L 31.348455504492186 6.077584693359377  C 28.693451658984372 3.034912097460939  23.34962986347656 0.1938909005859391  18.07733484316406 0.1938909005859391  C 8.203218803320308 0.1938909005859391  0.19774968632812318 8.138096818359378  0.19774968632812318 17.936349922851562  C 0.19774968632812318 27.73460302734375  8.203338147070312 35.67872938242187  18.077334843749988 35.67872938242187  C 22.83330839414062 35.67872938242187  27.14229927714843 33.824602633593756  30.34509159960937 30.819483581835932  C 30.684744324023427 30.44028824648437  31.45132994121093 29.788193205468747  30.910463410546875 28.965436395703126  L 21.145905066210936 19.040798106445315  Z M 18.07733484316406 33.460922003906255  C 9.436956206249997 33.460922003906255  2.4326232410156217 26.510254009570314  2.4326232410156217 17.936270360742192  C 2.4326232410156217 9.362207147460946  9.436995987304684 2.411618716992192  18.07733484316406 2.411618715820315  C 22.502487116015622 2.411618715820315  26.47624099980468 4.2590622070312545  29.319131917968747 7.190943888867191  L 18.077334843750002 19.11391613261719  L 28.373769145898436 29.595293690625006  C 25.622574121289063 31.992793192382813  22.028691855468743 33.460961786132806  18.077334843750002 33.46096178554688  Z " fill-rule="nonzero" fill="#333333" stroke="none" transform="matrix(1 0 0 1 640 36 )" />
  </g>
</svg>