<?xml version="1.0" encoding="utf-8"?>
<svg version="1.1" xmlns:xlink="http://www.w3.org/1999/xlink" width="36px" height="36px" xmlns="http://www.w3.org/2000/svg">
  <g transform="matrix(1 0 0 1 -640 -36 )">
    <path d="M 13.6074683900391 9.06508063007813  L 11.3724357105469 9.06508063007813  L 11.3724357105469 11.2828880080078  L 9.13752237539063 11.2828880080078  L 9.13752237539063 13.5007351664062  L 11.3724357105469 13.5007351664062  L 11.3724357105469 15.7185425443359  L 13.6074286095703 15.7185425443359  L 13.6074286095703 13.5007351664062  L 15.8423419441406 13.5007351664062  L 15.8423419441406 11.2829277896484  L 13.6074286095703 11.2829277896484  L 13.6074286095703 9.06508063066406  Z M 35.6776552869141 18.8611059826172  C 35.6776552869141 17.0247614736328  34.1779003423828 15.5343551349609  32.3252057208984 15.534355134375  C 30.4723519734375 15.534355134375  28.9727561548828 17.0247614736328  28.9727561537109 18.8611059826172  C 28.9727561537109 20.6974107099609  30.4723519728516 22.1877772669922  32.3252057208984 22.1877772675781  C 34.17797990625 22.1877772675781  35.6776552869141 20.6974504904297  35.6776552869141 18.8611059826172  Z M 21.1458652845703 19.0407583253906  L 31.4446069025391 8.19120485214844  C 32.2178757785156 7.40166542519531  31.4624289246094 6.14640634042969  31.3306334824219 6.095366934375  L 31.3484555044922 6.07758469335938  C 28.6934516589844 3.03491209746094  23.3496298634766 0.193890900585939  18.0773348431641 0.193890900585939  C 8.20321880332031 0.193890900585939  0.197749686328123 8.13809681835938  0.197749686328123 17.9363499228516  C 0.197749686328123 27.7346030273437  8.20333814707031 35.6787293824219  18.07733484375 35.6787293824219  C 22.8333083941406 35.6787293824219  27.1422992771484 33.8246026335938  30.3450915996094 30.8194835818359  C 30.6847443240234 30.4402882464844  31.4513299412109 29.7881932054687  30.9104634105469 28.9654363957031  L 21.1459050662109 19.0407981064453  Z M 18.0773348431641 33.4609220039063  C 9.43695620625 33.4609220039063  2.43262324101562 26.5102540095703  2.43262324101562 17.9362703607422  C 2.43262324101562 9.36220714746095  9.43699598730468 2.41161871699219  18.0773348431641 2.41161871582031  C 22.5024871160156 2.41161871582031  26.4762409998047 4.25906220703125  29.3191319179687 7.19094388886719  L 18.07733484375 19.1139161326172  L 28.3737691458984 29.595293690625  C 25.6225741212891 31.9927931923828  22.0286918554687 33.4609617861328  18.07733484375 33.4609617855469  Z " fill-rule="nonzero" fill="#333333" stroke="none" transform="matrix(1 0 0 1 640 36 )" />
  </g>
</svg>