<?xml version="1.0" encoding="utf-8"?>
<svg version="1.1" xmlns:xlink="http://www.w3.org/1999/xlink" width="36px" height="36px" xmlns="http://www.w3.org/2000/svg">
  <g transform="matrix(1 0 0 1 -269 -36 )">
    <path d="M 35.8540826612903 15.0438508064516  C 35.8540826612903 14.711189516129  35.7973790322581 14.3936491935484  35.6915322580645 14.0987903225806  L 35.7066532258064 14.0987903225806  L 35.6575100806452 14.008064516129  C 35.578125 13.8114919354839  35.4798387096774 13.6262600806452  35.3626512096774 13.4523689516129  L 29.0458669354839 1.4992439516129  C 28.5355342741935 0.648689516129032  27.6055947580645 0.11945564516129  26.6113911290323 0.11945564516129  L 9.39238911290323 0.11945564516129  C 8.40574596774194 0.11945564516129  7.47202620967742 0.644909274193548  7.04107862903226 1.49168346774194  L 0.811239919354839 13.1612903225806  C 0.365171370967742 13.6640625  0.0929939516129031 14.3218245967742  0 15.0438508064516  L 0 33.0189012096774  C 0.0929939516129031 34.5839213709677  1.36315524193548 35.8540826612903  2.92817540322581 35.8540826612903  L 33.0189012096774 35.8540826612903  C 34.5839213709677 35.8540826612903  35.8540826612903 34.5839213709677  35.8540826612903 33.0189012096774  L 35.8540826612903 15.0438508064516  Z M 26.6113911290323 2.00579637096774  C 26.9402721774194 2.00579637096774  27.2540322580645 2.18346774193548  27.4203629032258 2.46698588709677  L 32.3724798387097 12.2086693548387  L 19 12.2086693548387  L 19 2.00579637096774  L 26.6113911290323 2.00579637096774  Z M 3.58215725806452 12.2048891129032  L 8.58341733870968 2.46320564516129  C 8.75352822580645 2.1796875  9.06350806451613 2.00579637096774  9.39238911290323 2.00579637096774  L 17 2.00579637096774  L 17 12.2048891129032  L 3.58215725806452 12.2048891129032  Z M 34 15.0438508064516  L 34 33.0189012096774  C 33.9639616935484 33.5405745967742  33.5405745967742 33.9639616935484  33.0189012096774 34  L 2.92817540322581 34  C 2.40650201612903 33.9639616935484  1.98311491935484 33.5405745967742  2 33.0189012096774  L 2 15.0438508064516  C 1.98311491935484 14.5221774193548  2.40650201612903 14.0987903225806  2.92817540322581 14  L 33.0189012096774 14  C 33.5405745967742 14.0987903225806  33.9639616935484 14.5221774193548  34 15.0438508064516  Z " fill-rule="nonzero" fill="#333333" stroke="none" transform="matrix(1 0 0 1 269 36 )" />
  </g>
</svg>