<?xml version="1.0" encoding="utf-8"?>
<svg version="1.1" xmlns:xlink="http://www.w3.org/1999/xlink" width="18px" height="11px" xmlns="http://www.w3.org/2000/svg">
  <g transform="matrix(1 0 0 1 -278 -56 )">
    <path d="M 8.886525371287126 1.1458333333333335  C 8.886525371287126 1.7635091145833302  9.276376856435643 2.264811197916667  9.756729579207919 2.264811197916667  L 16.941135519801982 2.264811197916667  C 17.421488242574252 2.264811197916667  17.81133972772277 1.7635091145833302  17.81133972772277 1.1458333333333335  C 17.81133972772277 0.5281575520833366  17.421488242574252 0.02685546875  16.941135519801982 0.02685546875  L 9.756729579207919 0.02685546875  C 9.276376856435643 0.02685546875  8.886525371287126 0.5281575520833366  8.886525371287126 1.1458333333333335  Z M 17.825262995049506 9.726155598958332  C 17.825262995049506 9.108479817708341  17.438892326732674 8.607177734375  16.955058787128706 8.607177734375  L 0.8702042079207921 8.607177734375  C 0.3898514851485148 8.607177734375  0 9.108479817708341  0 9.726155598958332  C 0 10.343831380208332  0.3898514851485148 10.845133463541668  0.8702042079207921 10.845133463541668  L 16.955058787128714 10.845133463541668  C 17.43541150990099 10.845133463541668  17.825262995049506 10.343831380208332  17.825262995049506 9.726155598958332  Z " fill-rule="nonzero" fill="#333333" stroke="none" transform="matrix(1 0 0 1 278 56 )" />
  </g>
</svg>