<?xml version="1.0" encoding="utf-8"?>
<svg version="1.1" xmlns:xlink="http://www.w3.org/1999/xlink" width="38px" height="38px" xmlns="http://www.w3.org/2000/svg">
  <defs>
    <mask fill="white" id="clip9">
      <path d="M 34.58681281738281 20.560871253551134  C 34.586769677734374 20.14311132590554  34.248065201083094 19.804536352539063  33.830477874200994 19.804536352539063  L 18.14598926003196 19.804536352539063  L 18.14598926003196 4.1200476962002845  C 18.14598926003196 3.7023740478515625  17.807371104847302 3.3637127530184667  17.389697498668326 3.3637127530184667  L 17.25821164550781 3.3637127530184667  C 17.25501834161932 3.3637127530184667  17.251954541015625 3.364144276012075  17.24880437677557 3.364187415660512  C 7.749372234552558 3.40475087224787  0.06113942427201691 11.11758066184304  0.06113942427201691 20.626506309925425  C 0.06113942427201691 30.16050364213423  7.789935648970169 37.8895587890625  17.323976120827417 37.8895587890625  C 26.832815489612926 37.8895587890625  34.545688418856535 30.201153335848716  34.586338154740766 20.701893836558945  C 34.586381294389206 20.698743714488636  34.58681281738281 20.69563673206676  34.58681281738281 20.692443428178265  L 34.58681281738281 20.560871253551134  Z M 32.92138286354758 21  C 32.49387046564276 29.692600430575283  25.67416925159801 36.24544623135654  17.323932981178977 36.24544623135654  C 8.697908691406251 36.24544623135654  1.7052088423295448 29.252703200461646  1.7052088423295448 20.626506309925425  C 1.7052088423295448 12.276270039506395  8.258054643110793 5.456611965110087  17 5.029142706853696  L 17 20.692486609996454  C 16.501919841974427 21.110117076526993  16.84049481534091 21.448562630948157  17.258211603338065 21  L 32.92138286354758 21  Z M 37.87490847167969 17.272473495205965  C 37.87490851384943 17.26457662020597  37.870765842507105 17.25819005459872  37.870550102095166 17.250552017489344  C 37.82286649502841 7.787065997869317  30.163373293235086 0.12735701349431822  20.6997578125 0.0797597278941764  C 20.692076635742183 0.07954394531250027  20.68560379083807 0.07531499467329565  20.677836292613634 0.07531499467329565  L 20.546264117986507 0.07531499467329565  C 20.128547329989342 0.07531499467329565  19.790015496271305 0.4140194291548295  19.790015496271305 0.8319088600852276  L 19.790015496271305 17.404045669833096  C 19.790015496271305 17.821676136363635  20.128590469637782 18.160380613014915  20.546264117986507 18.160380613014915  L 37.11865984996449 18.160380613014915  C 37.53641977761008 18.160380613014915  37.87490847167969 17.821632996715202  37.87490847167969 17.404045669833096  L 37.87490847167969 17.272473495205965  Z M 36.19057774325284 17  L 21 17  L 21 1.7607677334872158  C 29.401601151899854 2.1768015691583806  35.7746302290483 8.550046428888493  36.19057774325284 17  Z " fill-rule="evenodd" />
    </mask>
  </defs>
  <g transform="matrix(1 0 0 1 -457 -34 )">
    <path d="M 34.58681281738281 20.560871253551134  C 34.586769677734374 20.14311132590554  34.248065201083094 19.804536352539063  33.830477874200994 19.804536352539063  L 18.14598926003196 19.804536352539063  L 18.14598926003196 4.1200476962002845  C 18.14598926003196 3.7023740478515625  17.807371104847302 3.3637127530184667  17.389697498668326 3.3637127530184667  L 17.25821164550781 3.3637127530184667  C 17.25501834161932 3.3637127530184667  17.251954541015625 3.364144276012075  17.24880437677557 3.364187415660512  C 7.749372234552558 3.40475087224787  0.06113942427201691 11.11758066184304  0.06113942427201691 20.626506309925425  C 0.06113942427201691 30.16050364213423  7.789935648970169 37.8895587890625  17.323976120827417 37.8895587890625  C 26.832815489612926 37.8895587890625  34.545688418856535 30.201153335848716  34.586338154740766 20.701893836558945  C 34.586381294389206 20.698743714488636  34.58681281738281 20.69563673206676  34.58681281738281 20.692443428178265  L 34.58681281738281 20.560871253551134  Z M 32.92138286354758 21  C 32.49387046564276 29.692600430575283  25.67416925159801 36.24544623135654  17.323932981178977 36.24544623135654  C 8.697908691406251 36.24544623135654  1.7052088423295448 29.252703200461646  1.7052088423295448 20.626506309925425  C 1.7052088423295448 12.276270039506395  8.258054643110793 5.456611965110087  17 5.029142706853696  L 17 20.692486609996454  C 16.501919841974427 21.110117076526993  16.84049481534091 21.448562630948157  17.258211603338065 21  L 32.92138286354758 21  Z M 37.87490847167969 17.272473495205965  C 37.87490851384943 17.26457662020597  37.870765842507105 17.25819005459872  37.870550102095166 17.250552017489344  C 37.82286649502841 7.787065997869317  30.163373293235086 0.12735701349431822  20.6997578125 0.0797597278941764  C 20.692076635742183 0.07954394531250027  20.68560379083807 0.07531499467329565  20.677836292613634 0.07531499467329565  L 20.546264117986507 0.07531499467329565  C 20.128547329989342 0.07531499467329565  19.790015496271305 0.4140194291548295  19.790015496271305 0.8319088600852276  L 19.790015496271305 17.404045669833096  C 19.790015496271305 17.821676136363635  20.128590469637782 18.160380613014915  20.546264117986507 18.160380613014915  L 37.11865984996449 18.160380613014915  C 37.53641977761008 18.160380613014915  37.87490847167969 17.821632996715202  37.87490847167969 17.404045669833096  L 37.87490847167969 17.272473495205965  Z M 36.19057774325284 17  L 21 17  L 21 1.7607677334872158  C 29.401601151899854 2.1768015691583806  35.7746302290483 8.550046428888493  36.19057774325284 17  Z " fill-rule="nonzero" fill="#333333" stroke="none" transform="matrix(1 0 0 1 457 34 )" />
    <path d="M 34.58681281738281 20.560871253551134  C 34.586769677734374 20.14311132590554  34.248065201083094 19.804536352539063  33.830477874200994 19.804536352539063  L 18.14598926003196 19.804536352539063  L 18.14598926003196 4.1200476962002845  C 18.14598926003196 3.7023740478515625  17.807371104847302 3.3637127530184667  17.389697498668326 3.3637127530184667  L 17.25821164550781 3.3637127530184667  C 17.25501834161932 3.3637127530184667  17.251954541015625 3.364144276012075  17.24880437677557 3.364187415660512  C 7.749372234552558 3.40475087224787  0.06113942427201691 11.11758066184304  0.06113942427201691 20.626506309925425  C 0.06113942427201691 30.16050364213423  7.789935648970169 37.8895587890625  17.323976120827417 37.8895587890625  C 26.832815489612926 37.8895587890625  34.545688418856535 30.201153335848716  34.586338154740766 20.701893836558945  C 34.586381294389206 20.698743714488636  34.58681281738281 20.69563673206676  34.58681281738281 20.692443428178265  L 34.58681281738281 20.560871253551134  Z " stroke-width="2" stroke="#333333" fill="none" transform="matrix(1 0 0 1 457 34 )" mask="url(#clip9)" />
    <path d="M 32.92138286354758 21  C 32.49387046564276 29.692600430575283  25.67416925159801 36.24544623135654  17.323932981178977 36.24544623135654  C 8.697908691406251 36.24544623135654  1.7052088423295448 29.252703200461646  1.7052088423295448 20.626506309925425  C 1.7052088423295448 12.276270039506395  8.258054643110793 5.456611965110087  17 5.029142706853696  L 17 20.692486609996454  C 16.501919841974427 21.110117076526993  16.84049481534091 21.448562630948157  17.258211603338065 21  L 32.92138286354758 21  Z " stroke-width="2" stroke="#333333" fill="none" transform="matrix(1 0 0 1 457 34 )" mask="url(#clip9)" />
    <path d="M 37.87490847167969 17.272473495205965  C 37.87490851384943 17.26457662020597  37.870765842507105 17.25819005459872  37.870550102095166 17.250552017489344  C 37.82286649502841 7.787065997869317  30.163373293235086 0.12735701349431822  20.6997578125 0.0797597278941764  C 20.692076635742183 0.07954394531250027  20.68560379083807 0.07531499467329565  20.677836292613634 0.07531499467329565  L 20.546264117986507 0.07531499467329565  C 20.128547329989342 0.07531499467329565  19.790015496271305 0.4140194291548295  19.790015496271305 0.8319088600852276  L 19.790015496271305 17.404045669833096  C 19.790015496271305 17.821676136363635  20.128590469637782 18.160380613014915  20.546264117986507 18.160380613014915  L 37.11865984996449 18.160380613014915  C 37.53641977761008 18.160380613014915  37.87490847167969 17.821632996715202  37.87490847167969 17.404045669833096  L 37.87490847167969 17.272473495205965  Z " stroke-width="2" stroke="#333333" fill="none" transform="matrix(1 0 0 1 457 34 )" mask="url(#clip9)" />
    <path d="M 36.19057774325284 17  L 21 17  L 21 1.7607677334872158  C 29.401601151899854 2.1768015691583806  35.7746302290483 8.550046428888493  36.19057774325284 17  Z " stroke-width="2" stroke="#333333" fill="none" transform="matrix(1 0 0 1 457 34 )" mask="url(#clip9)" />
  </g>
</svg>