<?xml version="1.0" encoding="utf-8"?>
<svg version="1.1" xmlns:xlink="http://www.w3.org/1999/xlink" width="36px" height="36px" xmlns="http://www.w3.org/2000/svg">
  <g transform="matrix(1 0 0 1 -74 -36 )">
    <path d="M 31 33.9375000146484  C 31.5094339475236 34.9687500292969  30.66037734375 35.8125000292969  29.5283018720519 35.8124999853516  L 23.3018867777123 35.8124999853516  C 22.1698113060142 35.8124999853516  21.3207547022406 34.9687499853516  21 33.8437499853516  L 21 22.6875000146484  C 21.3207547022406 22.6875000146484  21.3207547022406 22.5937500292969  21.2264150943396 22.5937499853516  L 15 22.5937499853516  C 14.9056603920991 22.5937499853516  14.9056603920991 22.5937499853516  15 22.6875000146484  L 15 33.8437499853516  C 14.9056603920991 34.9687499853516  14.0566037883255 35.8124999853516  12.9245283166274 35.8124999853516  L 6.69811322228774 35.8124999853516  C 5.56603775058962 35.8124999853516  4.71698114681604 34.9687499853516  5 33.8437499853516  L 5 17.0625000146484  C 4.71698114681604 17.0625000146484  4.71698114681604 16.9687500292969  4.6226414946934 16.9687499853516  L 2.16981133549528 16.9687499853516  C 1.3207547317217 16.9687499853516  0.566037735849057 16.4999999707031  0.283018867924529 15.6562500146484  C 0 14.90625  0.188679260023586 14.0625  0.849056603773585 13.5  L 16.7924528154481 0.656249985351563  C 17.5471698113208 0  18.5849056308962 0  19.3396226267689 0.656249985351563  L 35.2830188826651 13.5937499853516  C 35.9433962264151 14.1562499853516  36.1320754864387 14.9999999853516  35.8490566185142 15.75  C 35.5660377505896 16.5000000146484  34.811320754717 17.0625000146484  33.9622641509434 17.0625000146484  L 31.6037735996462 17.0625000146484  C 31.5094339917453 17.0625000146484  31.5094339917453 17.0625000146484  31 17.15625  L 31 33.9375000146484  Z M 13 22.6875000146484  C 13.0188679245283 21.5625000146484  13.8679245283019 20.7187500146484  15 20.7187500146484  L 21.2264150943396 20.7187500146484  C 22.3584905660377 20.7187500146484  23.2075471698113 21.5625000146484  23 22.6875000146484  L 23 33.8437499853516  C 23.2075471698113 33.8437499853516  23.2075471698113 33.9374999707031  23.3018867777123 33.9375000146484  L 29.5283018720519 33.9375000146484  C 29.6226414799528 33.9375000146484  29.6226414799528 33.9375000146484  29 33.8437499853516  L 29 17.0625000146484  C 29.6226415241745 15.9375000146484  30.4716981279481 15.0937500146484  31.6037735996462 15.0937500146484  L 33.9622641509434 15.0937500146484  C 33.9622641509434 15.0937500146484  34.0566037588443 15.0937500146484  34.0566037588443 14.9999999853516  L 18.2075471550708 2.06249998535156  L 18.0188679392689 2.06249998535156  L 2.07547168337264 14.9999999853516  C 2.07547168337264 15.0937499707031  2.16981129127359 15.0937499707031  2.16981133549528 15.0937500146484  L 4.52830188679245 15.0937500146484  C 5.66037735849057 15.0937500146484  6.50943396226415 15.9375000146484  7 17.0625000146484  L 7 33.8437499853516  C 6.50943396226415 33.8437499853516  6.50943396226415 33.9374999707031  6.6037735701651 33.9375000146484  L 12.8301886645047 33.9375000146484  C 12.9245282724057 33.9375000146484  12.9245282724057 33.9375000146484  13 33.8437499853516  L 13 22.6875000146484  Z " fill-rule="nonzero" fill="#333333" stroke="none" transform="matrix(1 0 0 1 74 36 )" />
  </g>
</svg>