<?xml version="1.0" encoding="utf-8"?>
<svg version="1.1" xmlns:xlink="http://www.w3.org/1999/xlink" width="70px" height="70px" xmlns="http://www.w3.org/2000/svg">
  <defs>
    <linearGradient gradientUnits="userSpaceOnUse" x1="0.35" y1="34.65" x2="69.65" y2="34.65" id="LinearGradient15">
      <stop id="Stop16" stop-color="#aaaabb" offset="0" />
      <stop id="Stop17" stop-color="#ffffff" offset="1" />
    </linearGradient>
  </defs>
  <g transform="matrix(1 0 0 1 -88 -50 )">
    <path d="M 38.29697265625 66.702958984375  C 38.29697265625 68.797763671875  37.094736328125 70  35 70  C 25.6935546875 70  16.91552734375 66.347763671875  10.28302734375 59.71697265625  C 3.65052734375 53.08447265625  0 44.306513671875  0 35  C 0 25.6935546875  3.652236328125 16.91552734375  10.28302734375 10.28302734375  C 16.91552734375 3.65052734375  25.693486328125 0  35 0  C 44.3064453125 0  53.08447265625 3.652236328125  59.71697265625 10.28302734375  C 66.34947265625 16.91552734375  70 25.693486328125  70 35  C 70 37.094736328125  68.797763671875 38.29697265625  66.70302734375 38.29697265625  C 64.60822265625 38.29697265625  63.4060546875 37.094736328125  63.4060546875 35  C 63.4060546875 27.44  60.44322265625 20.31572265625  55.06375 14.93625  C 49.68427734375 9.555  42.56 6.594013671875  35 6.594013671875  C 27.44 6.594013671875  20.31572265625 9.556640625  14.93625 14.93625  C 9.555 20.314013671875  6.594013671875 27.44  6.594013671875 35  C 6.594013671875 42.56  9.556708984375 49.68427734375  14.93625 55.06375  C 20.31572265625 60.445  27.44 63.405986328125  35 63.405986328125  C 37.094736328125 63.405986328125  38.29697265625 64.60822265625  38.29697265625 66.702958984375  Z " fill-rule="nonzero" fill="url(#LinearGradient15)" stroke="none" transform="matrix(1 0 0 1 88 50 )" />
  </g>
</svg>