<?xml version="1.0" encoding="utf-8"?>
<svg version="1.1" xmlns:xlink="http://www.w3.org/1999/xlink" width="12px" height="19px" xmlns="http://www.w3.org/2000/svg">
  <g transform="matrix(1 0 0 1 -47 -87 )">
    <path d="M 5.13008522727273 1.74946788194445  C 7.14894886363636 0.525452256944447  9.60559090909091 0.031551215277778  11.9405284090909 0.360587673611112  L 11.9405284090909 1.65525954861111  C 9.7549744062797 1.71334716841859  7.6406690078206 2.4199414236437  5.8839375 3.67935329861111  C 4.54626136363636 4.64429600694445  3.52465909090909 5.96182725694445  2.81913068181818 7.42136371527779  C 2.13671752574826 8.81811864203128  1.79549958772902 10.3480414508241  1.82186931818182 11.8927960069444  C 1.82186931818182 13.5875069444444  2.3086875 15.2351137152778  3.1355625 16.7175095486111  C 3.52465909090909 17.3998272569444  3.9624375 18.0589392361111  4.54590340909091 18.6002907986111  C 3.35427272727273 17.8002126736111  2.35701136363636 16.7175095486111  1.6275 15.4934939236111  C 0.630238636363637 13.8697855902778  0.14377840909091 11.9634522569444  0.192102272727274 10.0571189236111  C 0.265482954545455 8.31565017361111  0.775926136363638 6.59738715277778  1.72486363636364 5.09143923611111  C 2.55173863636364 3.74966319444444  3.74372727272727 2.57309809027778  5.13008522727273 1.74912152777778  Z " fill-rule="nonzero" fill="#25f4ee" stroke="none" transform="matrix(1 0 0 1 47 87 )" />
  </g>
</svg>