<?xml version="1.0" encoding="utf-8"?>
<svg version="1.1" xmlns:xlink="http://www.w3.org/1999/xlink" width="20px" height="28px" xmlns="http://www.w3.org/2000/svg">
  <g transform="matrix(1 0 0 1 -55 -75 )">
    <path d="M 6.842105263157895 22.043726415094337  C 6.8186184210526335 17.402478773584903  6.8186184210526335 12.761577830188676  6.8186184210526335 8.120330188679244  C 6.842105263157895 5.458035377358489  6.8186184210526335 2.7960872641509424  6.842105263157895 0.1337924528301875  L 12.263766447368425 0.1337924528301875  C 12.240279605263158 0.6053018867924508  12.310740131578946 1.0761179245283001  12.381200657894738 1.5240518867924502  L 8.390855263157896 1.5240518867924502  L 8.390855263157896 23.150386792452828  C 8.414342105263156 24.06913679245283  8.179473684210524 24.98788679245283  7.733569078947365 25.788759433962262  C 7.029654605263155 27.013990566037737  5.7150822368420995 27.8620141509434  4.307253289473678 27.979891509433966  C 3.4150986842105215 28.0506179245283  2.4998026315789446 27.885589622641508  1.7019407894736815 27.438002358490564  C 1.0916282894736782 27.10829245283019  0.575263157894733 26.637129716981136  0.1763322368420997 26.07201179245283  C 1.5613651315789423 26.84896226415095  3.368124999999995 26.778582547169812  4.706184210526311 25.90663679245283  C 5.997269736842106 25.105764150943397  6.842105263157895 23.59797405660377  6.842105263157895 22.043726415094337  Z M 15.760888157894739 6.588964622641507  C 16.511776315789476 7.060127358490565  17.356611842105266 7.436988207547167  18.224934210526314 7.625591981132073  C 18.741299342105265 7.743469339622641  19.257664473684212 7.790273584905659  19.79751644736842 7.790273584905659  L 19.79751644736842 9.015504716981132  C 18.248421052631578 8.661872641509433  16.816759868421055 7.790273584905659  15.760542763157893 6.588617924528302  Z " fill-rule="nonzero" fill="#25f4ee" stroke="none" transform="matrix(1 0 0 1 55 75 )" />
  </g>
</svg>