<?xml version="1.0" encoding="utf-8"?>
<svg version="1.1" xmlns:xlink="http://www.w3.org/1999/xlink" width="12px" height="19px" xmlns="http://www.w3.org/2000/svg">
  <g transform="matrix(1 0 0 1 -47 -87 )">
    <path d="M 5.130085227272728 1.7494678819444458  C 7.148948863636363 0.5254522569444469  9.605590909090909 0.03155121527777796  11.94052840909091 0.36058767361111205  L 11.94052840909091 1.6552595486111092  C 9.754974406279697 1.7133471684185864  7.640669007820598 2.4199414236437047  5.883937500000001 3.6793532986111117  C 4.546261363636362 4.6442960069444466  3.5246590909090907 5.961827256944447  2.819130681818184 7.421363715277786  C 2.136717525748263 8.818118642031276  1.7954995877290207 10.348041450824136  1.8218693181818186 11.892796006944447  C 1.8218693181818186 13.587506944444446  2.3086874999999996 15.235113715277782  3.1355625000000016 16.71750954861111  C 3.5246590909090925 17.39982725694444  3.962437500000001 18.05893923611111  4.545903409090909 18.60029079861111  C 3.3542727272727273 17.800212673611114  2.357011363636364 16.71750954861111  1.6275000000000004 15.49349392361111  C 0.6302386363636372 13.869785590277779  0.1437784090909101 11.963452256944441  0.19210227272727437 10.057118923611116  C 0.26548295454545534 8.315650173611113  0.7759261363636376 6.597387152777778  1.7248636363636385 5.091439236111111  C 2.551738636363638 3.749663194444444  3.743727272727274 2.5730980902777776  5.13008522727273 1.74912152777778  Z " fill-rule="nonzero" fill="#25f4ee" stroke="none" transform="matrix(1 0 0 1 47 87 )" />
  </g>
</svg>