<?xml version="1.0" encoding="utf-8"?>
<svg version="1.1" xmlns:xlink="http://www.w3.org/1999/xlink" width="26px" height="31px" xmlns="http://www.w3.org/2000/svg">
  <g transform="matrix(1 0 0 1 -49 -76 )">
    <path d="M 14.507301250000005 22.020311440677972  C 14.553711250000006 14.803797139830511  14.530506250000007 7.634176906779663  14.530506249999998 0.46455667372881365  L 18.495831250000002 0.46455667372881365  C 18.63472 1.2379639830508467  18.913180000000004 1.9644772245762696  19.260913750000004 2.6671986228813562  C 19.817151250000002 3.7447277542372888  20.60543875 4.705366525423728  21.625776250000005 5.338091631355934  C 21.695732500000005 5.384985699152543  21.741801250000005 5.431879766949153  21.788211250000007 5.502220868644069  C 22.83175375 6.696985169491525  24.24623500000001 7.56418061440678  25.799946250000005 7.915541313559324  C 25.823151250000002 9.321328919491526  25.799946250000005 10.750563559322035  25.799946250000005 12.156351165254238  C 23.179487500000004 12.179798199152541  20.559370000000005 11.336394597457627  18.426216250000007 9.789924788135593  C 18.426216250000007 13.16388400423729  18.426216250000007 16.53784322033898  18.44908 19.911457627118647  C 18.44908 20.356951271186446  18.472285000000003 20.802100105932205  18.44908 21.27069597457628  C 18.333055 22.9106091101695  17.8232275 24.527420021186444  17.011734999999998 25.95665466101696  C 16.31592625 27.198313029661023  15.365203749999997 28.299634004237298  14.228841250000002 29.143037605932214  C 12.768291249999999 30.24435858050848  10.95966625 30.853291843220347  9.151041249999999 30.900185911016962  C 8.223182499999998 30.923632944915262  7.295665 30.87673887711865  6.3913525 30.665715572033907  C 5.118274055042885 30.38299894605408  3.912781105413772 29.849655459252464  2.843717500000001 29.0961435381356  L 2.7741024999999992 29.025802436440685  C 2.2417608544189527 28.467214778309412  1.7891128911775571 27.83634471067237  1.4292362499999995 27.15141896186442  C 0.6409487499999997 25.698737288135604  0.17684875000000064 24.03537711864407  0.17684875000000064 22.348225105932208  C 0.15364375000000066 20.825547139830515  0.47851375 19.279077330508482  1.127571250000002 17.896736758474585  C 1.7998337500000001 16.44405508474577  2.797307500000001 15.132055614406786  4.049353749999998 14.171416843220344  C 5.724104454122309 12.917622327195694  7.739742267319972 12.214179696659365  9.82330375 12.156351165254243  C 9.846508750000002 12.695288135593227  9.82330375 13.234225105932207  9.846508750000002 13.749370233050854  L 9.846508750000002 16.490604343220344  C 9.17424625 16.256478813559326  8.4320275 16.256478813559326  7.736218750000001 16.420608050847463  C 6.901521250000002 16.60783951271187  6.113233750000001 16.982647245762713  5.463835000000002 17.545376059322038  C 5.069691250000002 17.896736758474585  4.721957500000002 18.31843855932204  4.489907500000002 18.786689618644072  C 4.0725587500000024 19.583543961864414  3.93367 20.52108050847458  4.026148750000001 21.411033368644073  C 4.1189687500000005 22.278228813559323  4.490248750000002 23.121287605932203  5.046486250000002 23.777459745762716  C 5.417425000000004 24.246400423728815  5.904388750000003 24.597761122881362  6.3913525000000035 24.9256747881356  C 6.785496250000003 25.48771398305085  7.295665000000002 25.95665466101695  7.898653750000001 26.284568326271184  C 8.689116897065977 26.705787542569137  9.581330908481538 26.892618064765728  10.472361250000004 26.823505296610175  C 11.863637500000003 26.729717161016953  13.162435000000006 25.862866525423733  13.857902500000005 24.644310381355936  C 14.298456250000001 23.84780084745763  14.530165000000002 22.9340561440678  14.507301250000005 22.020311440677972  Z " fill-rule="nonzero" fill="#ffffff" stroke="none" transform="matrix(1 0 0 1 49 76 )" />
  </g>
</svg>