<?xml version="1.0" encoding="utf-8"?>
<svg version="1.1" xmlns:xlink="http://www.w3.org/1999/xlink" width="25px" height="32px" xmlns="http://www.w3.org/2000/svg">
  <g transform="matrix(1 0 0 1 -52 -76 )">
    <path d="M 15.920963541666666 0.45633870967741946  C 16.385807291666666 0.47937096774193555  16.84996744791667 0.45633870967741946  17.337711588541662 0.45633870967741946  C 17.337711588541662 1.998483870967742  17.82545572916667 3.540629032258063  18.731217447916663 4.806387096774193  C 18.847428385416663 4.967612903225806  18.963639322916666 5.105467741935484  19.079850260416663 5.2436612903225805  C 18.057877604166663 4.622129032258063  17.245084635416664 3.6788225806451593  16.710856119791664 2.6200161290322566  C 16.362223307291664 1.9527580645161275  16.083658854166668 1.2160645161290307  15.92130533854166 0.45633870967741763  Z M 23.237125651041666 7.77551612903226  C 23.748111979166673 7.890677419354842  24.259098307291662 7.936403225806454  24.79332682291667 7.936403225806454  L 24.79332682291667 13.299193548387096  C 22.14542643229166 13.32222580645161  19.49786783854167 12.447677419354836  17 10.905532258064516  L 17 21.538645161290326  C 17.360953776041665 22.34443548387097  17.291569010416662 23.149887096774197  17.10563151041667 23.93230645161291  C 16.583950787987554 26.337084311833703  15.176085604583346 28.46265755272348  13.157194010416665 29.89359677419355  C 12.09889312734333 30.645541082111798  10.898170611798923 31.177806093075297  9.627115885416666 31.45843548387098  C 8.095503010386302 31.80406514216977  6.502550405953656 31.780369249037566  4.982096354166665 31.38933870967743  C 3.193473307291667 30.92903225806452  1.5214029947916652 29.939661290322586  0.26735026041666554 28.581435483870976  C 1.3354654947916655 29.34116129032258  2.5433756510416643 29.8471935483871  3.820670572916666 30.123580645161294  C 4.726432291666666 30.330532258064522  5.655436197916667 30.37659677419355  6.584440104166667 30.35390322580646  C 8.395963541666667 30.307500000000008  10.207486979166665 29.709338709677425  11.671061197916666 28.627500000000012  C 12.809244791666666 27.799016129032267  13.737906901041667 26.717177419354844  14.458072916666664 25.49748387096775  C 15.270865885416665 24.093532258064524  15.781852213541669 22.505322580645167  15.898063151041661 20.894419354838718  C 15.921302393410427 20.4496527452267  15.921302393410427 20.003992416063625  15.898063151041663 19.559225806451618  C 15.874820963541666 16.245290322580647  15.874820963541666 12.930677419354842  15.874820963541666 9.616741935483876  C 18.011393229166664 11.135854838709681  20.636051432291666 11.964000000000004  23.260367838541672 11.941306451612908  C 23.237125651041666 10.5603870967742  23.260367838541672 9.15643548387097  23.237125651041666 7.775177419354843  Z " fill-rule="nonzero" fill="#fe2c55" stroke="none" transform="matrix(1 0 0 1 52 76 )" />
  </g>
</svg>