<?xml version="1.0" encoding="utf-8"?>
<svg version="1.1" xmlns:xlink="http://www.w3.org/1999/xlink" width="8px" height="13px" xmlns="http://www.w3.org/2000/svg">
  <g transform="matrix(1 0 0 1 -53 -88 )">
    <path d="M 6.413249999999997 1.5781674999999953  C 6.365649999999993 1.1140674999999962  6.389449999999996 0.581034999999994  6.365650000000001 0.04766124999999988  C 6.888900000000001 0.04766124999999988  7.435949999999999 0.070866249999998  7.958849999999999 0.1404812499999997  L 7.958849999999999 5.682381249999999  C 7.19795 5.427126249999998  6.341849999999999 5.40392125  5.556799999999998 5.589561249999999  C 4.058800000000001 5.914089999999995  2.798100000000001 7.027247499999994  2.27485 8.44172875  C 1.7516 9.833005  1.9657999999999978 11.456331250000002  2.8694999999999995 12.639103749999999  C 2.3462499999999995 12.337438749999997  1.870599999999998 11.966158749999998  1.4901499999999979 11.502741249999998  C 0.9192999999999983 10.853342499999998  0.5388499999999965 10.01830375  0.44364999999999666 9.160401249999998  C 0.3484499999999969 8.279293749999999  0.49124999999999847 7.351776249999999  0.9192999999999983 6.563488749999998  C 1.157299999999998 6.099388749999996  1.5139499999999961 5.682381249999999  1.918199999999998 5.334647499999997  C 2.5842499999999973 4.778068749999997  3.4161999999999977 4.430334999999996  4.2491999999999965 4.221489999999998  C 4.962499999999996 4.059054999999996  5.723399999999996 4.059054999999996  6.413249999999997 4.2911049999999955  L 6.413249999999997 1.5781674999999953  Z " fill-rule="nonzero" fill="#fe2c55" stroke="none" transform="matrix(1 0 0 1 53 88 )" />
  </g>
</svg>