<?xml version="1.0" encoding="utf-8"?>
<svg version="1.1" xmlns:xlink="http://www.w3.org/1999/xlink" width="44px" height="44px" xmlns="http://www.w3.org/2000/svg">
  <g transform="matrix(1 0 0 1 -40 -64 )">
    <path d="M 44 22  C 44 9.849735503722544  34.15026449627746 0  22 0  C 9.849735503722544 0  0 9.849735503722544  0 22  C 0 34.15026449627746  9.849735503722544 44  22 44  C 34.15026449627746 44  44 34.15026449627746  44 22  Z M 21.935000011718756 26.95999998828125  L 24.029999984375003 14.184999984374999  L 28.215000000000003 14.184999984374999  L 26.119999984375006 26.95999998828125  L 21.935000011718756 26.95999998828125  Z M 36.700000003906254 9.260000019531251  L 33.060000015625 29.184999980468746  C 32.48998331998182 32.39971880372518  29.694863478061166 34.74163293699411  26.430000007812502 34  L 11.229999988281254 34  C 11.228961428003332 34.740000699540666  11.227922867497055 34.74000105907666  11.2268843069702 34.74000105907666  C 8.741602926259544 34.74000105907666  6.726884295251451 32.72528242806857  6.726884295251451 30.24000104735791  C 6.726884295251451 29.97851547905606  6.749675780763523 29.717527487489942  6.7950000078125035 29.45999998046875  L 8.99999998046875 16.765000011718747  C 9.612491746939298 13.274611837825983  12.646282554273158 10.73027824395399  16.190000019531247 10.734999988281253  L 21.609999984375 10.734999988281253  L 20.884999996093747 15.149999992187503  L 15.72000001171875 15.1499999921875  C 14.595848609728192 15.150087854746948  13.634237840514867 15.957756556774275  13.440000019531247 17.065000003906253  L 11.529999980468748 28.000000015624998  C 11.512307263184187 28.107430140743467  11.503416589874368 28.216125629467854  11.503416589874368 28.325002918320404  C 11.503416589874368 29.42823839201218  12.396766128293008 30.323115352892124  13.499999992187501 30  L 26.449999984375005 30  C 27.576881910858187 30.324875146073996  28.540710028580975 29.515006434452406  28.734999992187504 28.404999992187502  L 32.129999988281256 9.260000019531251  L 36.700000003906254 9.260000019531251  Z M 15.895000000000001 17.67500001953125  L 20.05999999609375 17.6850000078125  L 18.50000001953125 26.95999998828125  L 14.29000001171875 26.95999998828125  L 15.895000000000001 17.67500001953125  Z " fill-rule="nonzero" fill="#000000" stroke="none" transform="matrix(1 0 0 1 40 64 )" />
  </g>
</svg>