<?xml version="1.0" encoding="utf-8"?>
<svg version="1.1" xmlns:xlink="http://www.w3.org/1999/xlink" width="25px" height="32px" xmlns="http://www.w3.org/2000/svg">
  <g transform="matrix(1 0 0 1 -52 -76 )">
    <path d="M 15.9209635416667 0.456338709677419  C 16.3858072916667 0.479370967741936  16.8499674479167 0.456338709677419  17.3377115885417 0.456338709677419  C 17.3377115885417 1.99848387096774  17.8254557291667 3.54062903225806  18.7312174479167 4.80638709677419  C 18.8474283854167 4.96761290322581  18.9636393229167 5.10546774193548  19.0798502604167 5.24366129032258  C 18.0578776041667 4.62212903225806  17.2450846354167 3.67882258064516  16.7108561197917 2.62001612903226  C 16.3622233072917 1.95275806451613  16.0836588541667 1.21606451612903  15.9213053385417 0.456338709677418  Z M 23.2371256510417 7.77551612903226  C 23.7481119791667 7.89067741935484  24.2590983072917 7.93640322580645  24.7933268229167 7.93640322580645  L 24.7933268229167 13.2991935483871  C 22.1454264322917 13.3222258064516  19.4978678385417 12.4476774193548  17 10.9055322580645  L 17 21.5386451612903  C 17.3609537760417 22.344435483871  17.2915690104167 23.1498870967742  17.1056315104167 23.9323064516129  C 16.5839507879876 26.3370843118337  15.1760856045833 28.4626575527235  13.1571940104167 29.8935967741936  C 12.0988931273433 30.6455410821118  10.8981706117989 31.1778060930753  9.62711588541667 31.458435483871  C 8.0955030103863 31.8040651421698  6.50255040595366 31.7803692490376  4.98209635416667 31.3893387096774  C 3.19347330729167 30.9290322580645  1.52140299479167 29.9396612903226  0.267350260416666 28.581435483871  C 1.33546549479167 29.3411612903226  2.54337565104166 29.8471935483871  3.82067057291667 30.1235806451613  C 4.72643229166667 30.3305322580645  5.65543619791667 30.3765967741936  6.58444010416667 30.3539032258065  C 8.39596354166667 30.3075  10.2074869791667 29.7093387096774  11.6710611979167 28.6275  C 12.8092447916667 27.7990161290323  13.7379069010417 26.7171774193548  14.4580729166667 25.4974838709677  C 15.2708658854167 24.0935322580645  15.7818522135417 22.5053225806452  15.8980631510417 20.8944193548387  C 15.9213023934104 20.4496527452267  15.9213023934104 20.0039924160636  15.8980631510417 19.5592258064516  C 15.8748209635417 16.2452903225806  15.8748209635417 12.9306774193548  15.8748209635417 9.61674193548388  C 18.0113932291667 11.1358548387097  20.6360514322917 11.964  23.2603678385417 11.9413064516129  C 23.2371256510417 10.5603870967742  23.2603678385417 9.15643548387097  23.2371256510417 7.77517741935484  Z " fill-rule="nonzero" fill="#fe2c55" stroke="none" transform="matrix(1 0 0 1 52 76 )" />
  </g>
</svg>