<?xml version="1.0" encoding="utf-8"?>
<svg version="1.1" xmlns:xlink="http://www.w3.org/1999/xlink" width="20px" height="28px" xmlns="http://www.w3.org/2000/svg">
  <g transform="matrix(1 0 0 1 -55 -75 )">
    <path d="M 6.84210526315789 22.0437264150943  C 6.81861842105263 17.4024787735849  6.81861842105263 12.7615778301887  6.81861842105263 8.12033018867924  C 6.84210526315789 5.45803537735849  6.81861842105263 2.79608726415094  6.84210526315789 0.133792452830188  L 12.2637664473684 0.133792452830188  C 12.2402796052632 0.605301886792451  12.3107401315789 1.0761179245283  12.3812006578947 1.52405188679245  L 8.3908552631579 1.52405188679245  L 8.3908552631579 23.1503867924528  C 8.41434210526316 24.0691367924528  8.17947368421052 24.9878867924528  7.73356907894737 25.7887594339623  C 7.02965460526316 27.0139905660377  5.7150822368421 27.8620141509434  4.30725328947368 27.979891509434  C 3.41509868421052 28.0506179245283  2.49980263157894 27.8855896226415  1.70194078947368 27.4380023584906  C 1.09162828947368 27.1082924528302  0.575263157894733 26.6371297169811  0.1763322368421 26.0720117924528  C 1.56136513157894 26.8489622641509  3.368125 26.7785825471698  4.70618421052631 25.9066367924528  C 5.99726973684211 25.1057641509434  6.84210526315789 23.5979740566038  6.84210526315789 22.0437264150943  Z M 15.7608881578947 6.58896462264151  C 16.5117763157895 7.06012735849056  17.3566118421053 7.43698820754717  18.2249342105263 7.62559198113207  C 18.7412993421053 7.74346933962264  19.2576644736842 7.79027358490566  19.7975164473684 7.79027358490566  L 19.7975164473684 9.01550471698113  C 18.2484210526316 8.66187264150943  16.8167598684211 7.79027358490566  15.7605427631579 6.5886179245283  Z " fill-rule="nonzero" fill="#25f4ee" stroke="none" transform="matrix(1 0 0 1 55 75 )" />
  </g>
</svg>