<?xml version="1.0" encoding="utf-8"?>
<svg version="1.1" xmlns:xlink="http://www.w3.org/1999/xlink" width="47px" height="47px" xmlns="http://www.w3.org/2000/svg">
  <defs>
    <mask fill="white" id="clip99">
      <path d="M 23.5 0  C 10.5217333486328 0  0 10.5217333486328  0 23.5  C 0 36.4782666513672  10.5217333486328 47  23.5 47  C 36.4782666513672 47  47 36.4782666513672  47 23.5  C 47 10.5217333486328  36.4782666513672 0  23.5 0  Z " fill-rule="evenodd" />
    </mask>
  </defs>
  <g transform="matrix(1 0 0 1 -10 0 )">
    <path d="M 23.5 0  C 10.5217333486328 0  0 10.5217333486328  0 23.5  C 0 36.4782666513672  10.5217333486328 47  23.5 47  C 36.4782666513672 47  47 36.4782666513672  47 23.5  C 47 10.5217333486328  36.4782666513672 0  23.5 0  Z " fill-rule="nonzero" fill="#22a7bb" stroke="none" transform="matrix(1 0 0 1 10 0 )" />
    <path d="M 23.5 0  C 10.5217333486328 0  0 10.5217333486328  0 23.5  C 0 36.4782666513672  10.5217333486328 47  23.5 47  C 36.4782666513672 47  47 36.4782666513672  47 23.5  C 47 10.5217333486328  36.4782666513672 0  23.5 0  Z " stroke-width="4" stroke="#22a7bb" fill="none" transform="matrix(1 0 0 1 10 0 )" mask="url(#clip99)" />
  </g>
</svg>