<?xml version="1.0" encoding="utf-8"?>
<svg version="1.1" xmlns:xlink="http://www.w3.org/1999/xlink" width="25px" height="30px" xmlns="http://www.w3.org/2000/svg">
  <g transform="matrix(1 0 0 1 -21 -8 )">
    <path d="M 24.0667 10.4067666513672  C 24.2385973490526 10.1116432467541  24.2928641894433 9.76254518682679  24.2186666513672 9.42916665136719  L 24.2233666513672 9.42916665136719  L 24.2077 9.3618  L 24.2061333486328 9.3618  L 22.1585 1.76346665136719  L 22.1522333486328 1.76503334863281  C 21.935246401136 1.09016405163178  21.2399778931886 0.691606812207414  20.5479666513672 0.8454  L 20.5464 0.839133348632812  L 12.8384 2.89146665136719  L 12.8384 2.89773334863281  C 12.5123183798827 3.00023940562874  12.2359422350177 3.22022364477584  12.0629 3.515  C 11.9407170962696 3.72503300951554  11.8763511995799 3.96368357105505  11.8763511995799 4.20667025186316  C 11.8763511995799 4.96635634319675  12.4921984568791 5.58220360049597  13.2518845482127 5.58220360049597  C 13.3536469757905 5.58220360049597  13.4550951605378 5.57091107807604  13.5543666513672 5.54853334863281  L 13.5543666513672 5.55323334863281  L 17.9645333486328 4.37823334863281  L 14.0149666513672 11.1807  C 12.0821743213126 10.4149669690078  9.95442036622715 10.290838839353  7.9457 10.8266333486328  C 2.76786665136719 12.2053  -0.3028 17.4959333486328  1.0837 22.6424333486328  C 2.4702 27.7889333486328  7.7906 30.8439333486328  12.9668666513672 29.4637  C 18.1447 28.0850333486328  21.2169333027344 22.7959666513672  19.8288666513672 17.6510333486328  C 19.2818968114217 15.6231836000948  18.0841958209902 13.8310354081191  16.4198 12.5499666513672  L 20.3646666513672 5.75846665136719  L 21.5271333486328 10.0746333486328  L 21.5443666513672 10.142  L 21.5522 10.1388666513672  C 21.6540333486328 10.4522  21.8639666513672 10.7342  22.1726 10.9112333486328  C 22.835349150165 11.2919206307996  23.6810968139279 11.0666677240584  24.0667 10.4067666513672  Z M 17.1514333486328 18.3607333486328  L 17.1498666513672 18.3623  C 18.1415666513672 22.0377  15.9482333027344 25.8165  12.2493333486328 26.8003666513672  C 8.552 27.7873666513672  4.75126669726562 25.605  3.76113334863281 21.9280333486328  C 2.76943334863281 18.2510666972656  4.96433334863281 14.4738333486328  8.66166665136718 13.4884  C 12.359 12.5045333486328  16.1597333027344 14.6853333486328  17.1514333486328 18.3607333486328  Z " fill-rule="nonzero" fill="#ffffff" stroke="none" transform="matrix(1 0 0 1 21 8 )" />
  </g>
</svg>