<?xml version="1.0" encoding="utf-8"?>
<svg version="1.1" xmlns:xlink="http://www.w3.org/1999/xlink" width="47px" height="47px" xmlns="http://www.w3.org/2000/svg">
  <defs>
    <mask fill="white" id="clip4">
      <path d="M 23.5 0  C 10.521733348632813 0  0 10.521733348632813  0 23.5  C 0 36.478266651367186  10.521733348632813 47  23.5 47  C 36.478266651367186 47  47 36.478266651367186  47 23.5  C 47 10.521733348632813  36.478266651367186 0  23.5 0  Z " fill-rule="evenodd" />
    </mask>
  </defs>
  <g transform="matrix(1 0 0 1 -10 0 )">
    <path d="M 23.5 0  C 10.521733348632813 0  0 10.521733348632813  0 23.5  C 0 36.478266651367186  10.521733348632813 47  23.5 47  C 36.478266651367186 47  47 36.478266651367186  47 23.5  C 47 10.521733348632813  36.478266651367186 0  23.5 0  Z " fill-rule="nonzero" fill="#ffffff" stroke="none" transform="matrix(1 0 0 1 10 0 )" />
    <path d="M 23.5 0  C 10.521733348632813 0  0 10.521733348632813  0 23.5  C 0 36.478266651367186  10.521733348632813 47  23.5 47  C 36.478266651367186 47  47 36.478266651367186  47 23.5  C 47 10.521733348632813  36.478266651367186 0  23.5 0  Z " stroke-width="4" stroke="#22a7bb" fill="none" transform="matrix(1 0 0 1 10 0 )" mask="url(#clip4)" />
  </g>
</svg>