<?xml version="1.0" encoding="utf-8"?>
<svg version="1.1" xmlns:xlink="http://www.w3.org/1999/xlink" width="25px" height="30px" xmlns="http://www.w3.org/2000/svg">
  <g transform="matrix(1 0 0 1 -21 -8 )">
    <path d="M 24.066699999999997 10.406766651367185  C 24.238597349052583 10.11164324675407  24.292864189443264 9.762545186826792  24.218666651367187 9.42916665136719  L 24.223366651367186 9.42916665136719  L 24.207700000000003 9.361799999999999  L 24.20613334863281 9.361799999999999  L 22.158500000000004 1.763466651367187  L 22.152233348632812 1.7650333486328105  C 21.93524640113604 1.090164051631783  21.239977893188602 0.6916068122074144  20.547966651367187 0.8453999999999997  L 20.546400000000002 0.8391333486328119  L 12.8384 2.891466651367187  L 12.838400000000002 2.897733348632812  C 12.51231837988271 3.000239405628742  12.235942235017731 3.2202236447758423  12.062899999999996 3.5150000000000006  C 11.940717096269605 3.7250330095155437  11.87635119957988 3.9636835710550464  11.87635119957988 4.206670251863162  C 11.87635119957988 4.966356343196747  12.492198456879105 5.5822036004959745  13.25188454821269 5.5822036004959745  C 13.3536469757905 5.5822036004959745  13.455095160537766 5.570911078076039  13.554366651367186 5.548533348632812  L 13.554366651367186 5.553233348632812  L 17.96453334863281 4.378233348632811  L 14.014966651367189 11.180699999999995  C 12.082174321312646 10.414966969007828  9.954420366227154 10.290838839353036  7.945700000000003 10.82663334863281  C 2.7678666513671892 12.205299999999998  -0.3027999999999995 17.49593334863281  1.0837000000000003 22.642433348632814  C 2.4701999999999984 27.788933348632817  7.790599999999998 30.843933348632817  12.966866651367187 29.463700000000003  C 18.1447 28.085033348632813  21.216933302734375 22.795966651367188  19.82886665136719 17.65103334863281  C 19.28189681142172 15.623183600094796  18.084195820990214 13.831035408119138  16.419800000000002 12.549966651367185  L 20.364666651367187 5.758466651367186  L 21.527133348632816 10.074633348632808  L 21.54436665136719 10.142  L 21.5522 10.138866651367184  C 21.654033348632808 10.452199999999998  21.863966651367193 10.734199999999998  22.172600000000003 10.911233348632813  C 22.835349150165037 11.291920630799641  23.68109681392785 11.06666772405842  24.066699999999997 10.406766651367185  Z M 17.15143334863281 18.36073334863281  L 17.149866651367187 18.362299999999998  C 18.14156665136719 22.0377  15.948233302734376 25.816499999999998  12.24933334863281 26.800366651367185  C 8.552 27.787366651367186  4.751266697265622 25.604999999999997  3.7611333486328085 21.92803334863281  C 2.769433348632809 18.25106669726562  4.96433334863281 14.473833348632812  8.661666651367184 13.488399999999999  C 12.358999999999998 12.504533348632808  16.159733302734374 14.68533334863281  17.15143334863281 18.36073334863281  Z " fill-rule="nonzero" fill="#22a7bb" stroke="none" transform="matrix(1 0 0 1 21 8 )" />
  </g>
</svg>