<?xml version="1.0" encoding="utf-8"?>
<svg version="1.1" xmlns:xlink="http://www.w3.org/1999/xlink" width="25px" height="26px" xmlns="http://www.w3.org/2000/svg">
  <g transform="matrix(1 0 0 1 -21 -11 )">
    <path d="M 24.9338624209449 9.70149253731343  C 24.9338624209449 4.36567164179104  20.4695767066592 0  15.01322750031 0  C 9.55687829396082 0  5.0925925796751 4.36567164179105  5.0925925796751 9.70149253731343  C 5.0925925796751 12.1268656716418  6.08465607173859 14.5522388059701  7.73809523809524 16.1691542414879  L 5.91931218222966 17.9477611940299  L 2.94312170603919 15.0373134328358  C 2.28174603174603 14.3905472510494  1.28968253968254 14.3905472510494  0.628306865389384 15.0373134328358  C -0.0330688089037711 15.6840796146222  -0.0330688089037697 16.6542288683535  0.628306865389384 17.3009950122435  L 3.60449734157986 20.2114427734375  L 0.628306865389384 23.1218905346315  C -0.0330688089037697 23.7686567164179  -0.0330688089037697 24.7388059701492  0.628306865389384 25.3855721519356  C 0.958994683159722 25.7089552238806  1.28968253968254 25.8706467788013  1.78571428571429 25.8706467788013  C 2.28174603174603 25.8706467788013  2.61243384951637 25.7089552238806  2.94312170603919 25.3855721519356  L 5.91931218222966 22.4751243907416  L 8.89550265842014 25.3855721519356  C 9.22619047619048 25.7089552238806  9.72222222222222 25.8706467788013  10.0529100399926 25.8706467788013  C 10.3835978577629 25.8706467788013  10.8796296037946 25.7089552238806  11.2103174603175 25.3855721519356  C 11.8716931346106 24.7388059701492  11.8716931346106 23.7686567164179  11.2103174603175 23.1218905346315  L 8.23412698412698 20.2114427734375  L 10.218253968254 18.2711442659748  C 11.7063492063492 18.9179104477612  13.3597883727059 19.4029850746269  15.01322750031 19.4029850746269  C 20.4695767066592 19.4029850746269  24.9338624209449 15.0373134328358  24.9338624209449 9.70149253731343  Z M 21.6269841269841 9.70149253731343  C 21.6269841269841 13.2587064802938  18.6507936507937 16.1691542414879  15.01322750031 16.1691542414879  C 11.3756613498264 16.1691542414879  8.39947087363592 13.2587064802938  8.3994709123884 9.70149253731343  C 8.39947095114088 6.14427859433303  11.3756613885789 3.23383083313899  15.01322750031 3.23383083313899  C 18.6507936120412 3.23383083313899  21.6269841269841 6.14427859433302  21.6269841269841 9.70149253731343  Z " fill-rule="nonzero" fill="#ec808d" stroke="none" transform="matrix(1 0 0 1 21 11 )" />
  </g>
</svg>