<?xml version="1.0" encoding="utf-8"?>
<svg version="1.1" xmlns:xlink="http://www.w3.org/1999/xlink" width="25px" height="26px" xmlns="http://www.w3.org/2000/svg">
  <g transform="matrix(1 0 0 1 -21 -11 )">
    <path d="M 24.93386242094494 9.70149253731343  C 24.93386242094494 4.365671641791043  20.469576706659225 0  15.013227500310023 0  C 9.556878293960816 0  5.0925925796751015 4.365671641791046  5.0925925796751015 9.701492537313435  C 5.0925925796751015 12.126865671641793  6.084656071738594 14.552238805970148  7.738095238095238 16.169154241487874  L 5.919312182229664 17.94776119402985  L 2.943121706039187 15.03731343283582  C 2.2817460317460316 14.39054725104944  1.2896825396825395 14.39054725104944  0.6283068653893843 15.03731343283582  C -0.03306880890377107 15.6840796146222  -0.03306880890376966 16.654228868353545  0.6283068653893843 17.30099501224347  L 3.604497341579862 20.2114427734375  L 0.6283068653893843 23.121890534631525  C -0.03306880890376966 23.76865671641791  -0.03306880890376966 24.738805970149247  0.6283068653893843 25.38557215193563  C 0.9589946831597224 25.708955223880594  1.2896825396825395 25.8706467788013  1.7857142857142856 25.8706467788013  C 2.2817460317460316 25.8706467788013  2.6124338495163686 25.708955223880594  2.943121706039187 25.38557215193563  L 5.919312182229664 22.475124390741602  L 8.895502658420138 25.38557215193563  C 9.22619047619048 25.708955223880594  9.722222222222223 25.8706467788013  10.052910039992561 25.8706467788013  C 10.383597857762899 25.8706467788013  10.879629603794644 25.708955223880594  11.210317460317464 25.38557215193563  C 11.871693134610618 24.738805970149247  11.871693134610618 23.76865671641791  11.210317460317464 23.121890534631525  L 8.234126984126984 20.2114427734375  L 10.218253968253968 18.271144265974815  C 11.706349206349206 18.917910447761194  13.35978837270585 19.402985074626862  15.013227500310023 19.402985074626862  C 20.469576706659225 19.402985074626862  24.93386242094494 15.037313432835816  24.93386242094494 9.70149253731343  Z M 21.626984126984127 9.701492537313435  C 21.626984126984127 13.258706480293842  18.650793650793652 16.169154241487874  15.013227500310023 16.169154241487874  C 11.375661349826391 16.169154241487874  8.399470873635916 13.258706480293842  8.399470912388395 9.701492537313435  C 8.399470951140875 6.144278594333026  11.375661388578873 3.2338308331389944  15.013227500310023 3.2338308331389944  C 18.65079361204117 3.2338308331389944  21.626984126984127 6.144278594333023  21.626984126984127 9.701492537313435  Z " fill-rule="nonzero" fill="#ffffff" stroke="none" transform="matrix(1 0 0 1 21 11 )" />
  </g>
</svg>