<?xml version="1.0" encoding="utf-8"?>
<svg version="1.1" xmlns:xlink="http://www.w3.org/1999/xlink" width="26px" height="31px" xmlns="http://www.w3.org/2000/svg">
  <g transform="matrix(1 0 0 1 -49 -76 )">
    <path d="M 14.50730125 22.020311440678  C 14.55371125 14.8037971398305  14.53050625 7.63417690677966  14.53050625 0.464556673728814  L 18.49583125 0.464556673728814  C 18.63472 1.23796398305085  18.91318 1.96447722457627  19.26091375 2.66719862288136  C 19.81715125 3.74472775423729  20.60543875 4.70536652542373  21.62577625 5.33809163135593  C 21.6957325 5.38498569915254  21.74180125 5.43187976694915  21.78821125 5.50222086864407  C 22.83175375 6.69698516949152  24.246235 7.56418061440678  25.79994625 7.91554131355932  C 25.82315125 9.32132891949153  25.79994625 10.750563559322  25.79994625 12.1563511652542  C 23.1794875 12.1797981991525  20.55937 11.3363945974576  18.42621625 9.78992478813559  C 18.42621625 13.1638840042373  18.42621625 16.537843220339  18.44908 19.9114576271186  C 18.44908 20.3569512711864  18.472285 20.8021001059322  18.44908 21.2706959745763  C 18.333055 22.9106091101695  17.8232275 24.5274200211864  17.011735 25.956654661017  C 16.31592625 27.198313029661  15.36520375 28.2996340042373  14.22884125 29.1430376059322  C 12.76829125 30.2443585805085  10.95966625 30.8532918432203  9.15104125 30.900185911017  C 8.2231825 30.9236329449153  7.295665 30.8767388771187  6.3913525 30.6657155720339  C 5.11827405504289 30.3829989460541  3.91278110541377 29.8496554592525  2.8437175 29.0961435381356  L 2.7741025 29.0258024364407  C 2.24176085441895 28.4672147783094  1.78911289117756 27.8363447106724  1.42923625 27.1514189618644  C 0.64094875 25.6987372881356  0.176848750000001 24.0353771186441  0.176848750000001 22.3482251059322  C 0.153643750000001 20.8255471398305  0.47851375 19.2790773305085  1.12757125 17.8967367584746  C 1.79983375 16.4440550847458  2.7973075 15.1320556144068  4.04935375 14.1714168432203  C 5.72410445412231 12.9176223271957  7.73974226731997 12.2141796966594  9.82330375 12.1563511652542  C 9.84650875 12.6952881355932  9.82330375 13.2342251059322  9.84650875 13.7493702330509  L 9.84650875 16.4906043432203  C 9.17424625 16.2564788135593  8.4320275 16.2564788135593  7.73621875 16.4206080508475  C 6.90152125 16.6078395127119  6.11323375 16.9826472457627  5.463835 17.545376059322  C 5.06969125 17.8967367584746  4.7219575 18.318438559322  4.4899075 18.7866896186441  C 4.07255875 19.5835439618644  3.93367 20.5210805084746  4.02614875 21.4110333686441  C 4.11896875 22.2782288135593  4.49024875 23.1212876059322  5.04648625 23.7774597457627  C 5.417425 24.2464004237288  5.90438875 24.5977611228814  6.3913525 24.9256747881356  C 6.78549625 25.4877139830508  7.295665 25.956654661017  7.89865375 26.2845683262712  C 8.68911689706598 26.7057875425691  9.58133090848154 26.8926180647657  10.47236125 26.8235052966102  C 11.8636375 26.729717161017  13.162435 25.8628665254237  13.8579025 24.6443103813559  C 14.29845625 23.8478008474576  14.530165 22.9340561440678  14.50730125 22.020311440678  Z " fill-rule="nonzero" fill="#ffffff" stroke="none" transform="matrix(1 0 0 1 49 76 )" />
  </g>
</svg>