<?xml version="1.0" encoding="utf-8"?>
<svg version="1.1" xmlns:xlink="http://www.w3.org/1999/xlink" width="44px" height="44px" xmlns="http://www.w3.org/2000/svg">
  <g transform="matrix(1 0 0 1 -40 -64 )">
    <path d="M 44 22  C 44 9.84973550372254  34.1502644962775 0  22 0  C 9.84973550372254 0  0 9.84973550372254  0 22  C 0 34.1502644962775  9.84973550372254 44  22 44  C 34.1502644962775 44  44 34.1502644962775  44 22  Z M 21.9350000117188 26.9599999882813  L 24.029999984375 14.184999984375  L 28.215 14.184999984375  L 26.119999984375 26.9599999882813  L 21.9350000117188 26.9599999882813  Z M 36.7000000039063 9.26000001953125  L 33.060000015625 29.1849999804687  C 32.4899833199818 32.3997188037252  29.6948634780612 34.7416329369941  26.4300000078125 34  L 11.2299999882813 34  C 11.2289614280033 34.7400006995407  11.2279228674971 34.7400010590767  11.2268843069702 34.7400010590767  C 8.74160292625954 34.7400010590767  6.72688429525145 32.7252824280686  6.72688429525145 30.2400010473579  C 6.72688429525145 29.9785154790561  6.74967578076352 29.7175274874899  6.7950000078125 29.4599999804688  L 8.99999998046875 16.7650000117187  C 9.6124917469393 13.274611837826  12.6462825542732 10.730278243954  16.1900000195312 10.7349999882813  L 21.609999984375 10.7349999882813  L 20.8849999960937 15.1499999921875  L 15.7200000117187 15.1499999921875  C 14.5958486097282 15.1500878547469  13.6342378405149 15.9577565567743  13.4400000195312 17.0650000039063  L 11.5299999804687 28.000000015625  C 11.5123072631842 28.1074301407435  11.5034165898744 28.2161256294679  11.5034165898744 28.3250029183204  C 11.5034165898744 29.4282383920122  12.396766128293 30.3231153528921  13.4999999921875 30  L 26.449999984375 30  C 27.5768819108582 30.324875146074  28.540710028581 29.5150064344524  28.7349999921875 28.4049999921875  L 32.1299999882813 9.26000001953125  L 36.7000000039063 9.26000001953125  Z M 15.895 17.6750000195313  L 20.0599999960938 17.6850000078125  L 18.5000000195313 26.9599999882813  L 14.2900000117187 26.9599999882813  L 15.895 17.6750000195313  Z " fill-rule="nonzero" fill="#000000" stroke="none" transform="matrix(1 0 0 1 40 64 )" />
  </g>
</svg>