<?xml version="1.0" encoding="utf-8"?>
<svg version="1.1" xmlns:xlink="http://www.w3.org/1999/xlink" width="8px" height="13px" xmlns="http://www.w3.org/2000/svg">
  <g transform="matrix(1 0 0 1 -53 -88 )">
    <path d="M 6.41325 1.5781675  C 6.36564999999999 1.1140675  6.38945 0.581034999999994  6.36565 0.0476612499999999  C 6.8889 0.0476612499999999  7.43595 0.070866249999998  7.95885 0.14048125  L 7.95885 5.68238125  C 7.19795 5.42712625  6.34185 5.40392125  5.5568 5.58956125  C 4.0588 5.91409  2.7981 7.02724749999999  2.27485 8.44172875  C 1.7516 9.833005  1.9658 11.45633125  2.8695 12.63910375  C 2.34625 12.33743875  1.8706 11.96615875  1.49015 11.50274125  C 0.919299999999998 10.8533425  0.538849999999997 10.01830375  0.443649999999997 9.16040125  C 0.348449999999997 8.27929375  0.491249999999998 7.35177625  0.919299999999998 6.56348875  C 1.1573 6.09938875  1.51395 5.68238125  1.9182 5.3346475  C 2.58425 4.77806875  3.4162 4.430335  4.2492 4.22149  C 4.9625 4.059055  5.7234 4.059055  6.41325 4.291105  L 6.41325 1.5781675  Z " fill-rule="nonzero" fill="#fe2c55" stroke="none" transform="matrix(1 0 0 1 53 88 )" />
  </g>
</svg>