<?xml version="1.0" encoding="utf-8"?>
<svg version="1.1" xmlns:xlink="http://www.w3.org/1999/xlink" width="12px" height="12px" viewBox="0 76  12 12" xmlns="http://www.w3.org/2000/svg">
  <path d="M 6 76  C 9.36 76  12 78.64  12 82  C 12 85.36  9.36 88  6 88  C 2.64 88  0 85.36  0 82  C 0 78.64  2.64 76  6 76  Z " fill-rule="nonzero" fill="#ffffff" stroke="none" />
  <path d="M 6 76.5  C 9.08 76.5  11.5 78.92  11.5 82  C 11.5 85.08  9.08 87.5  6 87.5  C 2.92 87.5  0.5 85.08  0.5 82  C 0.5 78.92  2.92 76.5  6 76.5  Z " stroke-width="1" stroke="#797979" fill="none" />
  <path d="M 6 85  C 4.32 85  3 83.68  3 82  C 3 80.32  4.32 79  6 79  C 7.68 79  9 80.32  9 82  C 9 83.68  7.68 85  6 85  " fill-rule="nonzero" fill="#797979" stroke="none" />
</svg>