<?xml version="1.0" encoding="utf-8"?>
<svg version="1.1" xmlns:xlink="http://www.w3.org/1999/xlink" width="97px" height="97px" xmlns="http://www.w3.org/2000/svg">
  <g transform="matrix(1 0 0 1 -569 -749 )">
    <path d="M 17.6363636363636 70.5454545454545  L 26.4545454545455 70.5454545454545  L 26.4545454545455 79.3636363636364  L 17.6363636363636 79.3636363636364  L 17.6363636363636 70.5454545454545  Z M 17.6363636363636 17.6363636363636  L 26.4545454545455 17.6363636363636  L 26.4545454545455 26.4545454545455  L 17.6363636363636 26.4545454545455  L 17.6363636363636 17.6363636363636  Z M 70.5454545454545 17.6363636363636  L 79.3636363636364 17.6363636363636  L 79.3636363636364 26.4545454545455  L 70.5454545454545 26.4545454545455  L 70.5454545454545 17.6363636363636  Z M 9 61  L 9 88  L 36 88  L 36 61  L 9 61  Z M 9 9  L 9 36  L 36 36  L 36 9  L 9 9  Z M 61 9  L 61 36  L 88 36  L 88 9  L 61 9  Z M 0 53  L 44 53  L 44 97  L 0 97  L 0 53  Z M 70.5454545454545 88.1818181818182  L 79.3636363636364 88.1818181818182  L 79.3636363636364 97  L 70.5454545454545 97  L 70.5454545454545 88.1818181818182  Z M 88.1818181818182 88.1818181818182  L 97 88.1818181818182  L 97 97  L 88.1818181818182 97  L 88.1818181818182 88.1818181818182  Z M 88.1818181818182 52.9090909090909  L 97 52.9090909090909  L 97 79  L 70.5454545454545 79  L 70.5454545454545 70.5454545454545  L 61 70.5454545454545  L 61 97  L 53 97  L 53 53  L 79.3636363636364 53  L 79.3636363636364 61.7272727272727  L 88.1818181818182 61.7272727272727  L 88.1818181818182 52.9090909090909  Z M 0 0  L 44 0  L 44 44  L 0 44  L 0 0  Z M 53 0  L 97 0  L 97 44  L 53 44  L 53 0  Z " fill-rule="nonzero" fill="#d7d7d7" stroke="none" transform="matrix(1 0 0 1 569 749 )" />
  </g>
</svg>