<?xml version="1.0" encoding="utf-8"?>
<svg version="1.1" xmlns:xlink="http://www.w3.org/1999/xlink" width="25px" height="25px" xmlns="http://www.w3.org/2000/svg">
  <g transform="matrix(1 0 0 1 -677 -43 )">
    <path d="M 0.0709672407670437 12.5  C 0.0709672407670437 5.63631924715909  5.63626376065341 0.0710227272727243  12.4999445134943 0.0710227272727273  C 13.0825528231534 0.0710227272727273  13.556962446733 0.542658025568182  13.556962446733 1.12804066051136  C 13.556962446733 1.71342329545454  13.0853271484375 2.18505859375  12.4999445134943 2.18505859375  C 6.80148037997159 2.18505859375  2.18222878196023 6.80431019176136  2.18222878196023 12.5027743252841  C 2.18222878196023 18.2012384588068  6.80148037997159 22.8177157315341  12.4999445134943 22.8177157315341  C 18.198408647017 22.8177157315341  22.8176602450284 18.1984641335227  22.8176602450284 12.5  C 22.8176602450284 11.9173916903409  23.2892955433239 11.4429820667614  23.874678178267 11.4429820667614  C 24.4600608132102 11.4429820667614  24.9289217862216 11.9173916903409  24.9289217862216 12.5  C 24.9289217862216 19.3636807528409  19.3636252663352 24.9289772727273  12.4999445134943 24.9289772727273  C 5.63626376065341 24.9289772727273  0.0709672407670437 19.3636807528409  0.0709672407670437 12.5  Z M 19.2138117009943 5.67238547585227  L 18.897538618608 5.35611239346591  C 18.503584428267 4.94828657670455  18.5091330788352 4.30186878551136  18.9114102450284 3.90236594460227  C 19.3136874112216 3.50008877840909  19.9601052024148 3.497314453125  20.3734796697443 3.89681729403409  L 22.193437056108 5.71677468039773  C 22.742753462358 6.26609108664773  22.742753462358 7.15387517755682  22.193437056108 7.70319158380682  L 20.3734796697443 9.52314897017046  C 19.968428178267 9.92820046164773  19.3109130859375 9.92820046164773  18.9058615944602 9.52314897017046  C 18.500810102983 9.11809747869318  18.500810102983 8.46058238636364  18.9058615944602 8.05553089488637  L 19.2138117009943 7.74758078835228  L 17.8738125887784 7.74758078835228  C 14.2311234907671 7.74758078835228  12.9937744140625 9.29842862215909  12.9937744140625 13.9898126775568  C 12.9937744140625 14.5640980113636  12.5304620916193 15.0274103338068  11.9561767578125 15.0274103338068  C 11.3818914240057 15.0274103338068  10.9185791015625 14.5640980113636  10.9185791015625 13.9898126775568  C 10.9185791015625 8.18869850852273  13.0353892933239 5.67238547585227  17.8738125887784 5.67238547585227  L 19.2138117009943 5.67238547585227  Z " fill-rule="nonzero" fill="#000000" stroke="none" transform="matrix(1 0 0 1 677 43 )" />
  </g>
</svg>