<?xml version="1.0" encoding="utf-8"?>
<svg version="1.1" xmlns:xlink="http://www.w3.org/1999/xlink" width="25px" height="25px" xmlns="http://www.w3.org/2000/svg">
  <g transform="matrix(1 0 0 1 -627 -43 )">
    <path d="M 23.3211188199627 9.29806244655628  C 22.4179078241328 3.99421058969378  17.8181845247184 0.116985786573098  12.4379819408815 0.124387097714552  C 7.07965663783559 0.174811817866617  2.51236528341952 4.02394353056461  1.55484503750777 9.29626253498134  C 0.553612698739534 10.2146894089649  -0.0113489662290281 11.514510053415  0.00017548973880597 12.8731274778452  C 0.00017548973880597 14.738730954602  1.08956912216262 16.9152683360541  2.79858070487407 16.9152683117615  C 4.35325025264303 16.9152683117615  4.35325025264303 15.2053567854089  4.35325025264303 12.8731274778452  C 4.35325025264303 10.696590096393  4.35325025264303 8.98712854186101  3.26565653179415 8.83098661963619  C 4.25584635163523 4.5536535644321  8.06591301505046 1.52484589808823  12.4563633273144 1.52484589808823  C 16.7873672592162 1.52484589808823  20.5620102398067 4.47386056703409  21.6098573781483 8.67619461287314  C 20.5222636572994 8.98712851756841  20.5222636572994 10.54179808963  20.5222636330068 12.7165355595072  C 20.5222636330068 14.2586057748368  20.5222636330068 15.3407997852534  20.8241980284126 16.117459601407  C 20.8277978515625 16.1246592234142  20.8349974735697 16.130058958139  20.8331975619947 16.1368086083256  C 19.9516931698927 20.3121425586909  17.4133745092895 22.0450029151119  14.9250032552083 22.6686706360774  C 14.3042244899942 21.9467431887298  13.3890754162632 21.5459515980115  12.4375319690609 21.5792770036536  C 10.882862421292 21.5792770036536  9.63912675392568 22.3577367313822  9.63912675392568 23.2891885300062  C 9.63912675392568 24.2206403286303  10.8828623969994 24.9991000563588  12.4375319690609 24.9991000563588  C 13.9922015411225 24.9991000563588  15.2359371841962 24.2224402402052  15.2359371599036 23.2891885300062  C 18.4273762352496 22.4996456085165  20.8237610572142 19.8574686031608  21.2989234491604 16.6043344070662  C 21.2989234491604 16.6115340290734  21.3097228943175 16.6133339406483  21.3151226290423 16.6187336510805  C 21.54720564204 16.7471523711079  21.8146092750482 16.7970340438677  22.077383176889 16.7609263011116  C 23.7872947032416 16.7609263011116  24.8757883920242 14.5825890080846  24.8757883920243 12.7169855556203  C 24.8549236879113 11.4106193981752  24.2917347494143 10.1717667509555  23.3211188199627 9.29716250291512  Z " fill-rule="nonzero" fill="#000000" stroke="none" transform="matrix(1 0 0 1 627 43 )" />
  </g>
</svg>