<?xml version="1.0" encoding="utf-8"?>
<svg version="1.1" xmlns:xlink="http://www.w3.org/1999/xlink" width="97px" height="97px" xmlns="http://www.w3.org/2000/svg">
  <g transform="matrix(1 0 0 1 -569 -749 )">
    <path d="M 17.636363636363637 70.54545454545455  L 26.454545454545453 70.54545454545455  L 26.454545454545453 79.36363636363636  L 17.636363636363637 79.36363636363636  L 17.636363636363637 70.54545454545455  Z M 17.636363636363637 17.636363636363633  L 26.454545454545453 17.636363636363633  L 26.454545454545453 26.454545454545453  L 17.636363636363637 26.454545454545453  L 17.636363636363637 17.636363636363633  Z M 70.54545454545455 17.636363636363633  L 79.36363636363637 17.636363636363633  L 79.36363636363637 26.454545454545453  L 70.54545454545455 26.454545454545453  L 70.54545454545455 17.636363636363633  Z M 9 61  L 9 88  L 36 88  L 36 61  L 9 61  Z M 9 9  L 9 36  L 36 36  L 36 9  L 9 9  Z M 61 9  L 61 36  L 88 36  L 88 9  L 61 9  Z M 0 53  L 44 53  L 44 97  L 0 97  L 0 53  Z M 70.54545454545455 88.18181818181817  L 79.36363636363637 88.18181818181817  L 79.36363636363637 97  L 70.54545454545455 97  L 70.54545454545455 88.18181818181817  Z M 88.18181818181817 88.18181818181817  L 97 88.18181818181817  L 97 97  L 88.18181818181817 97  L 88.18181818181817 88.18181818181817  Z M 88.18181818181817 52.90909090909091  L 97 52.90909090909091  L 97 79  L 70.54545454545455 79  L 70.54545454545455 70.54545454545455  L 61 70.54545454545455  L 61 97  L 53 97  L 53 53  L 79.36363636363637 53  L 79.36363636363637 61.72727272727273  L 88.18181818181817 61.72727272727273  L 88.18181818181817 52.90909090909091  Z M 0 0  L 44 0  L 44 44  L 0 44  L 0 0  Z M 53 0  L 97 0  L 97 44  L 53 44  L 53 0  Z " fill-rule="nonzero" fill="#d7d7d7" stroke="none" transform="matrix(1 0 0 1 569 749 )" />
  </g>
</svg>