<?xml version="1.0" encoding="utf-8"?>
<svg version="1.1" xmlns:xlink="http://www.w3.org/1999/xlink" width="25px" height="25px" xmlns="http://www.w3.org/2000/svg">
  <g transform="matrix(1 0 0 1 -627 -43 )">
    <path d="M 23.321118819962688 9.298062446556282  C 22.417907824132833 3.994210589693782  17.81818452471842 0.11698578657309766  12.437981940881528 0.12438709771455225  C 7.07965663783559 0.1748118178666166  2.512365283419518 4.023943530564609  1.5548450375077738 9.296262534981341  C 0.5536126987395339 10.214689408964901  -0.011348966229028116 11.51451005341501  0.00017548973880597015 12.87312747784515  C 0.00017548973880597015 14.738730954601989  1.0895691221626242 16.9152683360541  2.798580704874067 16.915268311761505  C 4.353250252643035 16.915268311761505  4.353250252643035 15.205356785408894  4.353250252643035 12.87312747784515  C 4.353250252643035 10.696590096393036  4.353250252643035 8.987128541861008  3.265656531794154 8.830986619636194  C 4.255846351635229 4.553653564432096  8.065913015050455 1.524845898088232  12.456363327314394 1.524845898088232  C 16.787367259216172 1.524845898088232  20.562010239806693 4.473860567034092  21.609857378148316 8.676194612873136  C 20.52226365729944 8.987128517568408  20.52226365729944 10.541798089629975  20.522263633006837 12.716535559507152  C 20.522263633006837 14.258605774836756  20.522263633006837 15.340799785253424  20.82419802841262 16.117459601407027  C 20.8277978515625 16.124659223414177  20.83499747356965 16.13005895813899  20.833197561994712 16.13680860832556  C 19.951693169892724 20.312142558690923  17.413374509289486 22.04500291511194  14.92500325520833 22.66867063607743  C 14.304224489994171 21.946743188729762  13.389075416263182 21.545951598011463  12.437531969060942 21.57927700365361  C 10.882862421291975 21.57927700365361  9.639126753925682 22.357736731382154  9.639126753925682 23.289188530006218  C 9.639126753925682 24.220640328630285  10.882862396999375 24.99910005635883  12.437531969060942 24.99910005635883  C 13.99220154112251 24.99910005635883  15.235937184196205 24.222440240205223  15.235937159903603 23.289188530006218  C 18.427376235249607 22.499645608516452  20.823761057214224 19.85746860316081  21.29892344916044 16.604334407066233  C 21.29892344916044 16.611534029073386  21.30972289431747 16.613333940648324  21.315122629042285 16.61873365108054  C 21.547205642039994 16.747152371107944  21.814609275048202 16.797034043867725  22.077383176888983 16.760926301111635  C 23.7872947032416 16.760926301111635  24.875788392024248 14.582589008084579  24.875788392024255 12.716985555620342  C 24.85492368791127 11.41061939817523  24.291734749414342 10.171766750955527  23.321118819962685 9.297162502915118  Z " fill-rule="nonzero" fill="#000000" stroke="none" transform="matrix(1 0 0 1 627 43 )" />
  </g>
</svg>