<?xml version="1.0" encoding="utf-8"?>
<svg version="1.1" xmlns:xlink="http://www.w3.org/1999/xlink" width="25px" height="25px" xmlns="http://www.w3.org/2000/svg">
  <g transform="matrix(1 0 0 1 -677 -43 )">
    <path d="M 0.07096724076704373 12.499999999999996  C 0.07096724076704373 5.636319247159089  5.636263760653408 0.07102272727272425  12.499944513494317 0.07102272727272728  C 13.08255282315341 0.07102272727272728  13.556962446732953 0.5426580255681818  13.556962446732953 1.1280406605113635  C 13.556962446732953 1.713423295454545  13.085327148437498 2.1850585937499996  12.499944513494317 2.1850585937499996  C 6.80148037997159 2.1850585937499996  2.182228781960226 6.804310191761363  2.182228781960226 12.502774325284088  C 2.182228781960226 18.20123845880681  6.80148037997159 22.817715731534086  12.499944513494317 22.817715731534086  C 18.198408647017043 22.817715731534086  22.817660245028407 18.198464133522723  22.817660245028407 12.499999999999996  C 22.817660245028407 11.917391690340905  23.28929554332386 11.44298206676136  23.874678178267043 11.44298206676136  C 24.460060813210223 11.44298206676136  24.92892178622159 11.917391690340905  24.92892178622159 12.499999999999996  C 24.92892178622159 19.363680752840907  19.363625266335223 24.928977272727266  12.499944513494317 24.928977272727266  C 5.636263760653408 24.928977272727266  0.07096724076704373 19.363680752840907  0.07096724076704373 12.499999999999996  Z M 19.213811700994317 5.672385475852273  L 18.89753861860795 5.356112393465909  C 18.503584428267043 4.948286576704546  18.509133078835223 4.301868785511364  18.911410245028407 3.902365944602273  C 19.31368741122159 3.5000887784090913  19.96010520241477 3.497314453125  20.373479669744317 3.8968172940340913  L 22.193437056107957 5.7167746803977275  C 22.742753462357957 6.2660910866477275  22.742753462357957 7.1538751775568175  22.193437056107957 7.7031915838068175  L 20.373479669744317 9.523148970170457  C 19.968428178267047 9.92820046164773  19.3109130859375 9.92820046164773  18.905861594460227 9.523148970170457  C 18.500810102982957 9.118097478693182  18.500810102982957 8.460582386363637  18.905861594460227 8.055530894886367  L 19.213811700994317 7.747580788352275  L 17.87381258877841 7.747580788352275  C 14.23112349076705 7.747580788352275  12.993774414062504 9.298428622159092  12.993774414062504 13.98981267755682  C 12.993774414062504 14.564098011363638  12.53046209161932 15.027410333806818  11.956176757812505 15.027410333806818  C 11.381891424005687 15.027410333806818  10.918579101562505 14.564098011363635  10.918579101562505 13.98981267755682  C 10.918579101562505 8.188698508522728  13.035389293323865 5.672385475852273  17.87381258877841 5.672385475852273  L 19.213811700994317 5.672385475852273  Z " fill-rule="nonzero" fill="#000000" stroke="none" transform="matrix(1 0 0 1 677 43 )" />
  </g>
</svg>