<?xml version="1.0" encoding="utf-8"?>
<svg version="1.1" xmlns:xlink="http://www.w3.org/1999/xlink" width="38px" height="38px" xmlns="http://www.w3.org/2000/svg">
  <defs>
    <mask fill="white" id="clip16">
      <path d="M 34.5868128173828 20.5608712535511  C 34.5867696777344 20.1431113259055  34.2480652010831 19.8045363525391  33.830477874201 19.8045363525391  L 18.145989260032 19.8045363525391  L 18.145989260032 4.12004769620028  C 18.145989260032 3.70237404785156  17.8073711048473 3.36371275301847  17.3896974986683 3.36371275301847  L 17.2582116455078 3.36371275301847  C 17.2550183416193 3.36371275301847  17.2519545410156 3.36414427601208  17.2488043767756 3.36418741566051  C 7.74937223455256 3.40475087224787  0.0611394242720169 11.117580661843  0.0611394242720169 20.6265063099254  C 0.0611394242720169 30.1605036421342  7.78993564897017 37.8895587890625  17.3239761208274 37.8895587890625  C 26.8328154896129 37.8895587890625  34.5456884188565 30.2011533358487  34.5863381547408 20.7018938365589  C 34.5863812943892 20.6987437144886  34.5868128173828 20.6956367320668  34.5868128173828 20.6924434281783  L 34.5868128173828 20.5608712535511  Z M 32.9213828635476 21  C 32.4938704656428 29.6926004305753  25.674169251598 36.2454462313565  17.323932981179 36.2454462313565  C 8.69790869140625 36.2454462313565  1.70520884232954 29.2527032004616  1.70520884232954 20.6265063099254  C 1.70520884232954 12.2762700395064  8.25805464311079 5.45661196511009  17 5.0291427068537  L 17 20.6924866099965  C 16.5019198419744 21.110117076527  16.8404948153409 21.4485626309482  17.2582116033381 21  L 32.9213828635476 21  Z M 37.8749084716797 17.272473495206  C 37.8749085138494 17.264576620206  37.8707658425071 17.2581900545987  37.8705501020952 17.2505520174893  C 37.8228664950284 7.78706599786932  30.1633732932351 0.127357013494318  20.6997578125 0.0797597278941764  C 20.6920766357422 0.0795439453125003  20.6856037908381 0.0753149946732957  20.6778362926136 0.0753149946732957  L 20.5462641179865 0.0753149946732957  C 20.1285473299893 0.0753149946732957  19.7900154962713 0.414019429154829  19.7900154962713 0.831908860085228  L 19.7900154962713 17.4040456698331  C 19.7900154962713 17.8216761363636  20.1285904696378 18.1603806130149  20.5462641179865 18.1603806130149  L 37.1186598499645 18.1603806130149  C 37.5364197776101 18.1603806130149  37.8749084716797 17.8216329967152  37.8749084716797 17.4040456698331  L 37.8749084716797 17.272473495206  Z M 36.1905777432528 17  L 21 17  L 21 1.76076773348722  C 29.4016011518999 2.17680156915838  35.7746302290483 8.55004642888849  36.1905777432528 17  Z " fill-rule="evenodd" />
    </mask>
  </defs>
  <g transform="matrix(1 0 0 1 -457 -1457 )">
    <path d="M 34.5868128173828 20.5608712535511  C 34.5867696777344 20.1431113259055  34.2480652010831 19.8045363525391  33.830477874201 19.8045363525391  L 18.145989260032 19.8045363525391  L 18.145989260032 4.12004769620028  C 18.145989260032 3.70237404785156  17.8073711048473 3.36371275301847  17.3896974986683 3.36371275301847  L 17.2582116455078 3.36371275301847  C 17.2550183416193 3.36371275301847  17.2519545410156 3.36414427601208  17.2488043767756 3.36418741566051  C 7.74937223455256 3.40475087224787  0.0611394242720169 11.117580661843  0.0611394242720169 20.6265063099254  C 0.0611394242720169 30.1605036421342  7.78993564897017 37.8895587890625  17.3239761208274 37.8895587890625  C 26.8328154896129 37.8895587890625  34.5456884188565 30.2011533358487  34.5863381547408 20.7018938365589  C 34.5863812943892 20.6987437144886  34.5868128173828 20.6956367320668  34.5868128173828 20.6924434281783  L 34.5868128173828 20.5608712535511  Z M 32.9213828635476 21  C 32.4938704656428 29.6926004305753  25.674169251598 36.2454462313565  17.323932981179 36.2454462313565  C 8.69790869140625 36.2454462313565  1.70520884232954 29.2527032004616  1.70520884232954 20.6265063099254  C 1.70520884232954 12.2762700395064  8.25805464311079 5.45661196511009  17 5.0291427068537  L 17 20.6924866099965  C 16.5019198419744 21.110117076527  16.8404948153409 21.4485626309482  17.2582116033381 21  L 32.9213828635476 21  Z M 37.8749084716797 17.272473495206  C 37.8749085138494 17.264576620206  37.8707658425071 17.2581900545987  37.8705501020952 17.2505520174893  C 37.8228664950284 7.78706599786932  30.1633732932351 0.127357013494318  20.6997578125 0.0797597278941764  C 20.6920766357422 0.0795439453125003  20.6856037908381 0.0753149946732957  20.6778362926136 0.0753149946732957  L 20.5462641179865 0.0753149946732957  C 20.1285473299893 0.0753149946732957  19.7900154962713 0.414019429154829  19.7900154962713 0.831908860085228  L 19.7900154962713 17.4040456698331  C 19.7900154962713 17.8216761363636  20.1285904696378 18.1603806130149  20.5462641179865 18.1603806130149  L 37.1186598499645 18.1603806130149  C 37.5364197776101 18.1603806130149  37.8749084716797 17.8216329967152  37.8749084716797 17.4040456698331  L 37.8749084716797 17.272473495206  Z M 36.1905777432528 17  L 21 17  L 21 1.76076773348722  C 29.4016011518999 2.17680156915838  35.7746302290483 8.55004642888849  36.1905777432528 17  Z " fill-rule="nonzero" fill="#22a7bb" stroke="none" transform="matrix(1 0 0 1 457 1457 )" />
    <path d="M 34.5868128173828 20.5608712535511  C 34.5867696777344 20.1431113259055  34.2480652010831 19.8045363525391  33.830477874201 19.8045363525391  L 18.145989260032 19.8045363525391  L 18.145989260032 4.12004769620028  C 18.145989260032 3.70237404785156  17.8073711048473 3.36371275301847  17.3896974986683 3.36371275301847  L 17.2582116455078 3.36371275301847  C 17.2550183416193 3.36371275301847  17.2519545410156 3.36414427601208  17.2488043767756 3.36418741566051  C 7.74937223455256 3.40475087224787  0.0611394242720169 11.117580661843  0.0611394242720169 20.6265063099254  C 0.0611394242720169 30.1605036421342  7.78993564897017 37.8895587890625  17.3239761208274 37.8895587890625  C 26.8328154896129 37.8895587890625  34.5456884188565 30.2011533358487  34.5863381547408 20.7018938365589  C 34.5863812943892 20.6987437144886  34.5868128173828 20.6956367320668  34.5868128173828 20.6924434281783  L 34.5868128173828 20.5608712535511  Z " stroke-width="2" stroke="#22a7bb" fill="none" transform="matrix(1 0 0 1 457 1457 )" mask="url(#clip16)" />
    <path d="M 32.9213828635476 21  C 32.4938704656428 29.6926004305753  25.674169251598 36.2454462313565  17.323932981179 36.2454462313565  C 8.69790869140625 36.2454462313565  1.70520884232954 29.2527032004616  1.70520884232954 20.6265063099254  C 1.70520884232954 12.2762700395064  8.25805464311079 5.45661196511009  17 5.0291427068537  L 17 20.6924866099965  C 16.5019198419744 21.110117076527  16.8404948153409 21.4485626309482  17.2582116033381 21  L 32.9213828635476 21  Z " stroke-width="2" stroke="#22a7bb" fill="none" transform="matrix(1 0 0 1 457 1457 )" mask="url(#clip16)" />
    <path d="M 37.8749084716797 17.272473495206  C 37.8749085138494 17.264576620206  37.8707658425071 17.2581900545987  37.8705501020952 17.2505520174893  C 37.8228664950284 7.78706599786932  30.1633732932351 0.127357013494318  20.6997578125 0.0797597278941764  C 20.6920766357422 0.0795439453125003  20.6856037908381 0.0753149946732957  20.6778362926136 0.0753149946732957  L 20.5462641179865 0.0753149946732957  C 20.1285473299893 0.0753149946732957  19.7900154962713 0.414019429154829  19.7900154962713 0.831908860085228  L 19.7900154962713 17.4040456698331  C 19.7900154962713 17.8216761363636  20.1285904696378 18.1603806130149  20.5462641179865 18.1603806130149  L 37.1186598499645 18.1603806130149  C 37.5364197776101 18.1603806130149  37.8749084716797 17.8216329967152  37.8749084716797 17.4040456698331  L 37.8749084716797 17.272473495206  Z " stroke-width="2" stroke="#22a7bb" fill="none" transform="matrix(1 0 0 1 457 1457 )" mask="url(#clip16)" />
    <path d="M 36.1905777432528 17  L 21 17  L 21 1.76076773348722  C 29.4016011518999 2.17680156915838  35.7746302290483 8.55004642888849  36.1905777432528 17  Z " stroke-width="2" stroke="#22a7bb" fill="none" transform="matrix(1 0 0 1 457 1457 )" mask="url(#clip16)" />
  </g>
</svg>