<?xml version="1.0" encoding="utf-8"?>
<svg version="1.1" xmlns:xlink="http://www.w3.org/1999/xlink" width="36px" height="36px" xmlns="http://www.w3.org/2000/svg">
  <g transform="matrix(1 0 0 1 -269 -1459 )">
    <path d="M 35.85408266129032 15.043850806451614  C 35.85408266129032 14.711189516129032  35.797379032258064 14.393649193548388  35.69153225806452 14.098790322580646  L 35.70665322580645 14.098790322580646  L 35.65751008064516 14.008064516129032  C 35.578125 13.811491935483874  35.47983870967742 13.62626008064516  35.362651209677416 13.452368951612907  L 29.045866935483872 1.4992439516129032  C 28.535534274193548 0.6486895161290323  27.605594758064516 0.11945564516129033  26.61139112903226 0.11945564516129033  L 9.392389112903226 0.11945564516129033  C 8.405745967741936 0.11945564516129033  7.472026209677419 0.6449092741935484  7.041078629032259 1.4916834677419355  L 0.8112399193548386 13.161290322580646  C 0.36517137096774194 13.6640625  0.09299395161290305 14.321824596774194  0 15.043850806451614  L 0 33.01890120967742  C 0.09299395161290305 34.583921370967744  1.363155241935484 35.85408266129032  2.9281754032258065 35.85408266129032  L 33.01890120967742 35.85408266129032  C 34.583921370967744 35.85408266129032  35.85408266129032 34.583921370967744  35.85408266129032 33.01890120967742  L 35.85408266129032 15.043850806451614  Z M 26.61139112903226 2.005796370967742  C 26.940272177419352 2.005796370967742  27.254032258064516 2.183467741935484  27.420362903225808 2.466985887096774  L 32.37247983870968 12.208669354838706  L 19 12.208669354838706  L 19 2.005796370967742  L 26.61139112903226 2.005796370967742  Z M 3.582157258064516 12.204889112903228  L 8.583417338709678 2.46320564516129  C 8.753528225806454 2.1796875  9.063508064516132 2.005796370967742  9.392389112903226 2.005796370967742  L 17 2.005796370967742  L 17 12.204889112903228  L 3.582157258064516 12.204889112903228  Z M 34 15.043850806451614  L 34 33.01890120967742  C 33.96396169354839 33.540574596774185  33.540574596774185 33.96396169354839  33.01890120967742 34  L 2.928175403225805 34  C 2.4065020161290307 33.96396169354839  1.9831149193548374 33.540574596774185  2 33.01890120967742  L 2 15.043850806451614  C 1.9831149193548374 14.522177419354838  2.4065020161290307 14.098790322580646  2.928175403225805 14  L 33.01890120967742 14  C 33.540574596774185 14.098790322580646  33.96396169354839 14.522177419354838  34 15.043850806451614  Z " fill-rule="nonzero" fill="#22a7bb" stroke="none" transform="matrix(1 0 0 1 269 1459 )" />
  </g>
</svg>