<?xml version="1.0" encoding="utf-8"?>
<svg version="1.1" xmlns:xlink="http://www.w3.org/1999/xlink" width="12px" height="12px" xmlns="http://www.w3.org/2000/svg">
  <g transform="matrix(1 0 0 1 -28 -114 )">
    <path d="M 34 115  C 36.8 115  39 117.2  39 120  C 39 122.8  36.8 125  34 125  C 31.2 125  29 122.8  29 120  C 29 117.2  31.2 115  34 115  Z " fill-rule="nonzero" fill="#ffffff" stroke="none" fill-opacity="0" />
    <path d="M 34 115  C 36.8 115  39 117.2  39 120  C 39 122.8  36.8 125  34 125  C 31.2 125  29 122.8  29 120  C 29 117.2  31.2 115  34 115  Z " stroke-width="2" stroke="#000000" fill="none" />
  </g>
</svg>