<?xml version="1.0" encoding="utf-8"?>
<svg version="1.1" xmlns:xlink="http://www.w3.org/1999/xlink" width="12px" height="12px" xmlns="http://www.w3.org/2000/svg">
  <g transform="matrix(1 0 0 1 -28 -135 )">
    <path d="M 34 136  C 36.8 136  39 138.2  39 141  C 39 143.8  36.8 146  34 146  C 31.2 146  29 143.8  29 141  C 29 138.2  31.2 136  34 136  Z " fill-rule="nonzero" fill="#ffffff" stroke="none" fill-opacity="0" />
    <path d="M 34 136  C 36.8 136  39 138.2  39 141  C 39 143.8  36.8 146  34 146  C 31.2 146  29 143.8  29 141  C 29 138.2  31.2 136  34 136  Z " stroke-width="2" stroke="#000000" fill="none" />
  </g>
</svg>