<?xml version="1.0" encoding="utf-8"?>
<svg version="1.1" xmlns:xlink="http://www.w3.org/1999/xlink" width="12px" height="12px" xmlns="http://www.w3.org/2000/svg">
  <g transform="matrix(1 0 0 1 -28 -125 )">
    <path d="M 34 126  C 36.8 126  39 128.2  39 131  C 39 133.8  36.8 136  34 136  C 31.2 136  29 133.8  29 131  C 29 128.2  31.2 126  34 126  Z " fill-rule="nonzero" fill="#ffffff" stroke="none" fill-opacity="0" />
    <path d="M 34 126  C 36.8 126  39 128.2  39 131  C 39 133.8  36.8 136  34 136  C 31.2 136  29 133.8  29 131  C 29 128.2  31.2 126  34 126  Z " stroke-width="2" stroke="#000000" fill="none" />
  </g>
</svg>