<?xml version="1.0" encoding="utf-8"?>
<svg version="1.1" xmlns:xlink="http://www.w3.org/1999/xlink" width="14px" height="11px" xmlns="http://www.w3.org/2000/svg">
  <g transform="matrix(1 0 0 1 -314 -17 )">
    <path d="M 4.67648275862069 8.078125  L 7 11  L 9.32351724137931 8.078125  C 8.6396091954023 7.58159722222222  7.86510344827586 7.33333333333333  7 7.33333333333333  C 6.13489655172414 7.33333333333333  5.3603908045977 7.58159722222222  4.67648275862069 8.078125  Z M 10.696 0.572916666666667  C 9.51935632183908 0.190972222222222  8.28735632183908 0  7 0  C 5.71264367816092 0  4.48064367816092 0.190972222222222  3.304 0.572916666666667  C 2.12735632183908 0.954861111111111  1.04613793103448 1.49920833333333  0.0603448275862069 2.20595833333333  L 1.20689655172414 3.667125  C 2.03177011494253 3.07495833333333  2.93694252873563 2.62136111111111  3.92241379310345 2.30633333333333  C 4.90788505747126 1.99130555555556  5.93374712643678 1.83379166666667  7 1.83379166666667  C 8.06625287356322 1.83379166666667  9.09211494252874 1.99130555555555  10.0775862068966 2.30633333333333  C 11.0630574712644 2.62136111111111  11.9682298850575 3.07495833333333  12.7931034482759 3.667125  L 13.9396551724138 2.20595833333333  C 12.9538620689655 1.49920833333333  11.8726436781609 0.954861111111111  10.696 0.572916666666667  Z M 7 3.66666666666667  C 6.1551724137931 3.66666666666667  5.33544827586207 3.79561111111111  4.5408275862069 4.0535  C 3.74620689655172 4.31138888888889  3.01708045977011 4.6695  2.35344827586207 5.12783333333333  L 3.53041379310345 6.589  C 4.55643678160919 5.86330555555556  5.71312643678161 5.50045833333333  7.00048275862069 5.50045833333333  C 8.28783908045977 5.50045833333333  9.44452873563218 5.86330555555556  10.4705517241379 6.589  L 11.6475172413793 5.12783333333333  C 10.9835632183908 4.6695  10.2544367816092 4.31138888888889  9.46013793103448 4.0535  C 8.66583908045977 3.79561111111111  7.84611494252873 3.66666666666667  7.00096551724138 3.66666666666667  Z " fill-rule="nonzero" fill="#333333" stroke="none" transform="matrix(1 0 0 1 314 17 )" />
  </g>
</svg>