<?xml version="1.0" encoding="utf-8"?>
<svg version="1.1" xmlns:xlink="http://www.w3.org/1999/xlink" width="15px" height="10px" xmlns="http://www.w3.org/2000/svg">
  <g transform="matrix(1 0 0 1 -293 -17 )">
    <path d="M 13.2069410786635 0.123385006752609  L 14.0777379707095 0.123385006752609  C 14.5586658143865 0.123385006752609  14.9485348627554 0.532747507539977  14.9485348627554 1.03772174340086  L 14.9485348627554 8.96227825659914  C 14.9485348627554 9.46725249246002  14.5586658143865 9.87661499324739  14.0777379707095 9.87661499324739  L 13.2069410786635 9.87661499324739  C 12.7260132349865 9.87661499324739  12.3361441866176 9.46725249246002  12.3361441866176 8.96227825659914  L 12.3361441866176 1.03772174340086  C 12.3361441866176 0.532747507539977  12.7260132349865 0.123385006752609  13.2069410786635 0.123385006752609  Z M 9.14336737115964 2.25698979005525  L 10.0141642725599 2.25698979005525  C 10.4950921162369 2.25698979005525  10.8849611646058 2.66635229084262  10.8849611646058 3.1713265267035  L 10.8849611646058 8.96227825659914  C 10.8849611646058 9.46725249246002  10.4950921162369 9.87661499324739  10.0141642725599 9.87661499324739  L 9.14336737115964 9.87661499324739  C 8.6624395274826 9.87661499324739  8.27257047911368 9.46725249246002  8.27257047911368 8.96227825659914  L 8.27257047911368 3.1713265267035  C 8.27257047911368 2.66635229084262  8.6624395274826 2.25698979005525  9.14336737115964 2.25698979005525  Z M 5.07935827881551 4.39059456353591  L 5.95015517086147 4.39059456353591  C 6.4310830145385 4.39059456353591  6.82095206290742 4.79995706432328  6.82095206290742 5.30493130018416  L 6.82095206290742 8.96227825659914  C 6.82095206290742 9.46725249246002  6.4310830145385 9.87661499324739  5.95015517086147 9.87661499324739  L 5.07935827881551 9.87661499324739  C 4.59843043513848 9.87661499324739  4.20856138676956 9.46725249246002  4.20856138676956 8.96227825659914  L 4.20856138676956 5.30493130018416  C 4.20856138676956 4.79995706432328  4.59843043513848 4.39059456353591  5.07935827881551 4.39059456353591  Z M 1.01578457131164 6.21926803683241  L 1.88658147271186 6.21926803683241  C 2.36750931638889 6.21926803683241  2.75737836475781 6.62863053761978  2.75737836475781 7.13360477348066  L 2.75737836475781 8.96227825659914  C 2.75737836475781 9.46725249246002  2.36750931638889 9.87661499324739  1.88658147271186 9.87661499324739  L 1.01578457131164 9.87661499324739  C 0.534856727634611 9.87661499324739  0.14498767926569 9.46725249246002  0.14498767926569 8.96227825659914  L 0.14498767926569 7.13360477348066  C 0.144987679265689 6.62863053761978  0.534856727634611 6.21926803683241  1.01578457131164 6.21926803683241  Z " fill-rule="nonzero" fill="#333333" stroke="none" transform="matrix(1 0 0 1 293 17 )" />
  </g>
</svg>