<?xml version="1.0" encoding="utf-8"?>
<svg version="1.1" xmlns:xlink="http://www.w3.org/1999/xlink" width="21px" height="11px" xmlns="http://www.w3.org/2000/svg">
  <g transform="matrix(1 0 0 1 -336 -17 )">
    <path d="M 18.2572668440737 0.044615383344072  C 18.2572400148492 0.044615383344072  18.2572131855881 0.0446153837678434  18.2571863563636 0  L 2.52207803844156 0  C 2.52207803844156 0.0446153846153846  2.52207802597403 0.0446153846153846  2.52207802597403 0.0446153846153846  C 1.12926562638259 0.0446153846153846  0.000168087272727475 1.15923731424948  0.000168087272727475 2.53419314461538  L 0.000168087272727273 8.12250068923077  C 7.29475040260059E-05 8.13132866959912  2.5376610191386E-05 8.14015708710647  2.5376610191386E-05 8.14898556706373  C 2.5376610191386E-05 9.52394139742964  1.12912291572005 10.6385633270637  2.52193531531149 10.6385633270637  L 18.2571863563636 10.6385633230769  C 19.6463034169047 10.6385633230926  20.7723980421492 9.52690580842811  20.7723980421492 8.15560676924646  C 20.7723980421492 8.15339969757966  20.7723950611704 8.15119262689637  20.7723890992208 8.14898556307692  L 20.7723890992208 2.54743558153846  C 20.7724427574795 2.54081449918373  20.7724695869309 2.53419323142959  20.7724695869309 2.52757193719023  C 20.7724695869309 1.15627289800857  19.6463749616863 0.044615383344072  18.2572668440737 0.044615383344072  Z M 19.8333800727273 2.54743558153846  L 19.8333800727273 8.12250068923077  C 19.8333800727273 8.98184808575847  19.1276941086904 9.67848679384615  18.2571863563636 9.67848679384615  L 2.52207803844156 9.67848679384615  C 1.6515702861148 9.67848679384615  0.945884322077923 8.98184808575847  0.945884322077922 8.12250068923077  L 0.945884322077922 2.54743558153846  C 0.945884322077922 1.68808818501076  1.6515702861148 0.991449476923076  2.52207803844156 1  L 18.2571863563636 1  C 19.1276941086904 0.991449476923076  19.8333800727273 1.68808818501076  19.8333800727273 2.54743558153846  Z " fill-rule="nonzero" fill="#333333" stroke="none" transform="matrix(1 0 0 1 336 17 )" />
  </g>
</svg>